<?xml version="1.0" standalone="no"?>
<!DOCTYPE svg PUBLIC "-//W3C//DTD SVG 20010904//EN"
 "http://www.w3.org/TR/2001/REC-SVG-20010904/DTD/svg10.dtd">
<svg version="1.0" xmlns="http://www.w3.org/2000/svg"
 width="2160.000000pt" height="2160.000000pt" viewBox="0 0 2160.000000 2160.000000"
 preserveAspectRatio="xMidYMid meet">
<metadata>
Created by potrace 1.14, written by Peter Selinger 2001-2017
</metadata>
<g transform="translate(0.000000,2160.000000) scale(0.100000,-0.100000)"
fill="#000000" stroke="none">
<path d="M9277 21483 c-1 0 -72 -4 -156 -7 -85 -4 -169 -9 -185 -11 -30 -4
-88 -9 -231 -20 -38 -3 -79 -8 -90 -10 -11 -2 -49 -7 -85 -11 -36 -3 -99 -12
-140 -19 -41 -7 -78 -11 -82 -8 -5 2 -8 -1 -8 -6 0 -6 -9 -11 -20 -11 -11 0
-20 -6 -20 -12 0 -9 -4 -8 -10 2 -5 8 -10 10 -10 5 0 -6 -12 -10 -27 -11 -49
-2 -237 -38 -279 -54 -13 -5 -24 -8 -24 -5 0 2 -30 -5 -67 -16 -38 -11 -75
-22 -83 -24 -8 -3 -46 -14 -85 -25 -38 -12 -93 -28 -121 -36 -29 -8 -65 -21
-80 -29 -16 -8 -37 -15 -46 -15 -9 0 -20 -4 -23 -10 -3 -5 -13 -10 -22 -10 -8
0 -29 -7 -46 -15 -30 -14 -152 -60 -244 -92 -24 -9 -43 -20 -43 -25 0 -5 -4
-7 -9 -4 -4 3 -17 -1 -27 -9 -10 -8 -27 -15 -36 -15 -10 0 -18 -4 -18 -9 0 -9
-38 -24 -56 -22 -7 1 -14 -5 -18 -14 -3 -8 -15 -15 -26 -15 -11 0 -20 -5 -20
-12 0 -6 -3 -8 -7 -5 -3 4 -17 0 -30 -8 -13 -9 -23 -12 -23 -8 0 5 -4 3 -8 -2
-4 -6 -26 -19 -49 -29 -24 -11 -43 -23 -43 -28 0 -5 -4 -7 -9 -3 -5 3 -16 -2
-25 -10 -8 -9 -17 -15 -18 -15 -6 2 -43 -14 -48 -21 -3 -4 -21 -14 -40 -23
-40 -17 -112 -59 -152 -87 -14 -11 -29 -19 -33 -19 -3 0 -26 -13 -50 -30 -24
-16 -48 -30 -53 -30 -5 0 -21 -11 -36 -25 -14 -13 -29 -25 -31 -25 -3 0 -9 0
-14 0 -4 0 -24 -13 -42 -30 -19 -16 -43 -33 -54 -36 -11 -4 -22 -10 -25 -13
-3 -4 -54 -41 -115 -82 -60 -41 -114 -79 -120 -85 -5 -6 -31 -26 -57 -44 -27
-18 -48 -37 -48 -42 0 -5 -4 -7 -9 -4 -5 3 -11 -1 -15 -9 -3 -8 -11 -15 -18
-15 -8 0 -20 -9 -28 -20 -8 -11 -20 -20 -27 -20 -6 0 -19 -10 -28 -22 -8 -13
-17 -21 -19 -18 -3 5 -88 -63 -128 -102 -10 -10 -20 -18 -23 -18 -6 0 -64 -52
-131 -117 -24 -24 -46 -43 -49 -43 -4 0 -42 -36 -86 -80 -43 -44 -82 -80 -86
-80 -5 0 -19 -15 -33 -32 -14 -18 -56 -63 -94 -100 -38 -38 -67 -68 -63 -68 3
0 -23 -29 -58 -65 -36 -36 -61 -65 -57 -65 4 0 3 -4 -3 -8 -5 -4 -28 -29 -50
-57 -21 -27 -42 -52 -45 -55 -11 -9 -90 -120 -90 -125 0 -3 -9 -15 -20 -27
-11 -12 -20 -25 -20 -30 0 -7 -28 -43 -58 -74 -7 -7 -12 -16 -12 -19 1 -9 -30
-65 -48 -86 -9 -11 -16 -22 -14 -24 2 -5 -36 -70 -76 -131 -7 -10 -15 -27 -18
-36 -4 -10 -10 -18 -15 -18 -5 0 -9 -7 -9 -15 0 -8 -5 -15 -12 -15 -6 0 -8 -3
-5 -7 4 -3 1 -13 -6 -22 -25 -30 -86 -148 -80 -155 3 -3 2 -6 -4 -6 -5 0 -18
-20 -29 -45 -10 -25 -22 -45 -27 -45 -4 0 -5 -4 -2 -10 3 -5 1 -10 -6 -10 -7
0 -10 -3 -6 -6 3 -4 -1 -21 -10 -38 -10 -17 -18 -33 -18 -36 0 -3 -8 -21 -17
-40 -48 -106 -67 -152 -89 -220 -13 -41 -26 -77 -29 -80 -3 -3 -7 -16 -8 -30
-2 -14 -9 -31 -14 -37 -6 -7 -8 -13 -4 -13 4 0 0 -13 -8 -29 -9 -16 -12 -31
-9 -34 3 -4 1 -12 -4 -19 -10 -13 -30 -96 -58 -238 -3 -14 -8 -38 -11 -55 -13
-68 -20 -122 -19 -157 1 -21 -2 -38 -5 -38 -8 0 -9 -37 -9 -379 0 -240 -2
-265 -18 -280 -10 -9 -26 -15 -35 -13 -10 2 -18 -1 -18 -7 0 -6 -7 -8 -15 -5
-8 4 -15 1 -15 -6 0 -6 -4 -9 -9 -5 -5 3 -12 1 -16 -5 -4 -6 -11 -8 -16 -5 -5
4 -12 -1 -15 -9 -3 -9 -10 -14 -14 -11 -5 3 -15 -1 -23 -9 -8 -8 -17 -12 -21
-9 -3 4 -6 1 -6 -5 0 -7 -5 -12 -11 -12 -6 0 -16 -6 -24 -12 -7 -7 -25 -22
-41 -33 -15 -11 -37 -30 -47 -42 -11 -12 -24 -20 -29 -17 -7 5 -12 -10 -9 -29
0 -4 -5 -6 -11 -5 -7 2 -12 -5 -12 -15 2 -14 -1 -15 -13 -6 -11 10 -14 10 -11
-2 2 -8 -2 -13 -8 -12 -6 1 -11 -8 -10 -20 2 -31 -25 -50 -40 -29 -10 14 -11
12 -9 -9 3 -31 -32 -92 -48 -82 -6 3 -7 1 -3 -5 10 -17 13 -16 39 23 24 35 24
35 42 15 17 -19 17 -20 1 -14 -11 4 -27 -2 -44 -18 -15 -13 -37 -23 -50 -23
-12 1 -22 -2 -22 -7 0 -6 7 -8 15 -5 8 4 17 2 20 -4 4 -5 1 -8 -7 -7 -7 2 -12
-2 -11 -8 1 -6 -4 -11 -12 -11 -8 0 -11 5 -8 11 3 6 3 8 -2 4 -4 -4 -15 -2
-24 5 -14 11 -14 10 -2 -6 8 -9 11 -20 8 -24 -4 -3 -2 -12 4 -19 7 -8 6 -14
-2 -20 -7 -4 -9 -3 -6 2 3 6 -3 16 -15 23 -16 10 -19 10 -12 -1 5 -7 10 -21
11 -31 3 -15 0 -16 -17 -7 -19 10 -20 10 -8 -9 10 -17 9 -23 -6 -39 -13 -16
-14 -21 -4 -26 7 -3 2 -3 -12 0 -23 5 -24 4 -7 -9 16 -13 16 -15 2 -21 -9 -3
-13 -10 -10 -16 3 -5 1 -10 -5 -10 -6 0 -8 -5 -4 -12 4 -7 3 -8 -5 -4 -9 6 -9
13 3 30 12 19 12 23 1 23 -8 0 -12 -4 -9 -8 3 -5 -5 -18 -17 -30 -15 -15 -17
-20 -7 -16 23 8 30 -19 10 -35 -15 -12 -16 -11 -3 5 9 11 10 17 2 17 -6 0 -15
-8 -18 -17 -9 -26 -53 -64 -64 -57 -5 3 -9 2 -8 -3 4 -26 -1 -35 -15 -24 -11
9 -14 8 -12 -6 0 -10 6 -22 11 -26 6 -5 3 -7 -7 -4 -18 6 -58 -23 -58 -42 0
-10 -14 -15 -33 -12 -4 1 -2 -9 4 -21 11 -21 11 -22 -4 -9 -15 12 -17 11 -17
-3 0 -10 -4 -14 -10 -11 -5 3 -10 1 -10 -6 0 -16 -47 -59 -56 -50 -4 3 -4 -2
0 -13 4 -13 2 -17 -8 -13 -10 4 -13 1 -10 -7 3 -8 -6 -23 -20 -33 -14 -11 -24
-22 -23 -24 2 -2 -10 -17 -27 -34 -16 -16 -23 -21 -15 -10 13 18 13 19 -3 7
-9 -8 -15 -19 -12 -26 3 -8 -4 -16 -15 -19 -15 -3 -19 -10 -15 -22 4 -10 -1
-22 -15 -31 -11 -8 -21 -22 -21 -30 0 -8 -4 -14 -10 -14 -5 0 -10 -7 -10 -16
0 -10 -6 -14 -15 -10 -8 3 -14 2 -14 -2 4 -22 -2 -32 -13 -26 -8 5 -7 0 2 -11
14 -17 13 -18 -2 -12 -10 3 -17 2 -15 -2 2 -10 -20 -45 -45 -73 -10 -10 -18
-22 -18 -28 0 -5 -6 -10 -12 -10 -9 0 -8 -4 2 -10 14 -9 13 -11 -9 -14 -16 -2
-25 -16 -10 -16 11 -1 11 -3 -2 -13 -9 -7 -24 -30 -34 -52 -11 -22 -21 -42
-24 -45 -16 -14 -40 -68 -33 -75 4 -5 2 -5 -4 -2 -11 6 -28 -26 -25 -45 1 -5
-5 -8 -12 -8 -8 0 -14 -7 -14 -15 0 -17 -45 -108 -56 -113 -4 -2 -5 -8 -1 -13
3 -5 0 -9 -6 -9 -6 0 -8 -4 -5 -10 3 -5 1 -10 -5 -10 -6 0 -8 -5 -5 -10 3 -6
0 -13 -9 -16 -8 -3 -12 -12 -9 -20 3 -8 -1 -14 -8 -14 -7 0 -10 -3 -6 -6 10
-11 -23 -65 -35 -58 -7 4 -8 3 -4 -5 4 -6 2 -19 -6 -28 -9 -12 -9 -15 -1 -9
18 10 16 1 -2 -18 -8 -8 -17 -25 -19 -38 -3 -13 -5 -25 -6 -28 -2 -3 -2 -9 -1
-14 1 -5 -5 -6 -12 -3 -11 4 -13 0 -10 -14 3 -12 -1 -21 -11 -25 -14 -5 -14
-9 -4 -22 11 -13 10 -15 -4 -9 -10 3 -18 2 -18 -3 0 -6 5 -10 11 -10 5 0 7 -5
4 -10 -4 -6 -10 -8 -14 -6 -4 3 -7 -5 -6 -17 3 -29 -5 -42 -16 -26 -5 9 -8 4
-6 -16 1 -17 -3 -30 -10 -30 -6 0 -15 -4 -20 -8 -4 -5 -3 -8 2 -7 21 5 27 0
17 -12 -6 -7 -10 -15 -10 -18 2 -16 -15 -50 -25 -50 -7 0 -6 -4 3 -10 8 -5 10
-10 5 -10 -6 0 -11 -8 -12 -19 -1 -10 -11 -38 -22 -62 -11 -24 -22 -57 -24
-72 -2 -15 -11 -36 -20 -47 -9 -11 -13 -20 -8 -20 19 0 -2 -37 -27 -48 -20 -8
-21 -10 -4 -6 22 5 31 -9 12 -21 -6 -3 -10 -17 -10 -30 0 -13 -6 -26 -12 -28
-9 -4 -9 -6 1 -6 11 -1 10 -5 -5 -17 -10 -8 -13 -13 -7 -9 9 4 11 1 7 -9 -3
-9 -11 -13 -18 -9 -6 4 -4 -2 4 -12 14 -17 13 -18 -4 -12 -14 6 -16 4 -9 -5 6
-7 9 -22 6 -33 -2 -11 -5 -29 -7 -40 -6 -39 -18 -65 -27 -60 -5 4 -9 2 -9 -4
0 -5 6 -12 13 -14 9 -4 9 -6 0 -6 -7 -1 -10 -8 -7 -16 4 -9 0 -15 -10 -15 -9
0 -16 -5 -16 -11 0 -5 4 -8 9 -4 5 3 8 -5 7 -17 -6 -45 -18 -78 -30 -78 -7 0
-6 -4 3 -9 9 -6 10 -11 3 -15 -6 -4 -8 -14 -5 -23 4 -10 2 -14 -4 -10 -6 4 -8
-3 -5 -18 2 -14 8 -23 11 -20 4 2 8 -3 8 -11 0 -10 -4 -11 -10 -5 -18 18 -35
-19 -27 -56 7 -27 5 -32 -5 -23 -10 8 -12 4 -9 -19 2 -18 -3 -36 -12 -46 -8
-8 -12 -15 -7 -15 5 0 14 5 20 11 8 8 13 7 18 -2 5 -8 4 -10 -3 -5 -7 4 -12 2
-12 -3 0 -6 -8 -11 -17 -12 -11 0 -13 -3 -5 -6 6 -2 12 -11 12 -19 0 -10 -5
-12 -13 -8 -7 5 -6 0 3 -11 8 -10 10 -16 5 -13 -6 4 -16 -1 -22 -11 -9 -14 -8
-18 3 -18 7 0 11 4 8 9 -3 4 0 8 5 8 17 0 13 -18 -6 -29 -12 -6 -18 -24 -20
-51 -2 -55 -10 -73 -25 -64 -7 4 -4 -2 6 -14 11 -12 14 -22 8 -22 -7 0 -12
-12 -12 -26 0 -14 -4 -23 -10 -19 -6 4 -7 -2 -2 -17 10 -28 5 -58 -11 -58 -8
0 -8 -3 0 -11 8 -8 8 -20 1 -40 -5 -16 -7 -36 -4 -45 4 -9 2 -13 -5 -8 -7 4
-10 1 -7 -7 3 -8 11 -13 17 -11 7 1 10 -2 6 -8 -3 -6 -11 -8 -16 -5 -5 4 -9
-7 -9 -23 0 -16 -3 -32 -7 -36 -13 -12 -9 -40 7 -53 12 -10 13 -14 2 -25 -11
-11 -12 -10 -7 5 4 9 3 17 -2 17 -13 0 -13 -40 0 -40 7 0 4 -5 -6 -11 -9 -5
-17 -15 -17 -21 0 -6 7 -5 18 3 13 11 13 9 -2 -9 -11 -13 -21 -39 -22 -60 -1
-20 -2 -47 -3 -60 -1 -16 -5 -21 -13 -16 -10 6 -10 4 -2 -7 5 -8 9 -25 7 -39
-2 -14 -4 -33 -4 -42 0 -10 -4 -20 -9 -23 -5 -3 -6 -13 -3 -21 3 -9 0 -20 -8
-25 -11 -7 -11 -9 -1 -9 7 0 10 -4 7 -10 -7 -12 -17 -86 -16 -122 1 -15 -3
-30 -9 -33 -7 -4 -7 -12 0 -25 5 -10 6 -20 1 -22 -4 -2 -11 -34 -14 -72 -3
-37 -8 -71 -11 -74 -3 -3 2 -11 12 -19 16 -12 16 -13 0 -7 -15 5 -18 0 -19
-32 0 -22 -2 -48 -4 -59 -1 -11 -6 -51 -10 -90 -4 -38 -9 -72 -11 -74 -2 -2 2
-11 9 -19 8 -11 9 -14 0 -9 -7 5 -12 1 -12 -10 0 -10 -2 -34 -5 -53 -3 -19 -7
-71 -11 -115 -6 -88 -12 -139 -21 -200 -4 -22 -7 -90 -8 -152 -1 -71 -5 -109
-11 -105 -5 3 -1 -4 9 -16 11 -12 16 -25 13 -29 -4 -3 -7 0 -7 7 0 29 -14 -3
-14 -33 -1 -21 -6 -31 -14 -29 -10 2 -11 -2 -4 -14 5 -9 6 -32 2 -50 -4 -18
-6 -35 -3 -38 5 -4 4 -130 0 -519 -1 -112 1 -167 9 -167 5 0 11 -21 13 -47 1
-26 8 -51 14 -55 9 -5 8 -8 -3 -8 -11 0 -12 -2 -3 -8 7 -5 14 -20 15 -35 1
-15 6 -27 10 -27 4 0 8 -7 8 -15 0 -8 6 -15 13 -15 8 0 7 -3 -3 -10 -12 -8
-11 -13 8 -33 18 -19 20 -26 10 -30 -10 -4 -10 -6 0 -6 6 -1 12 -8 12 -16 0
-8 6 -15 13 -15 8 0 7 -4 -3 -10 -10 -6 -11 -10 -2 -10 6 0 12 -7 12 -16 0 -8
5 -12 11 -8 7 4 9 0 5 -14 -4 -12 -2 -23 5 -28 8 -5 9 -3 4 6 -5 9 -4 11 4 6
9 -6 9 -11 -1 -24 -10 -12 -10 -14 -1 -8 8 4 13 1 13 -9 0 -9 5 -13 10 -10 14
9 12 -9 -2 -24 -11 -10 -9 -11 6 -5 13 5 17 4 12 -4 -4 -7 -2 -12 6 -12 9 0 9
-3 -2 -10 -13 -8 -13 -10 2 -10 9 0 20 -5 24 -12 4 -7 3 -8 -4 -4 -7 4 -12 2
-12 -3 0 -6 5 -11 11 -11 5 0 7 -4 4 -10 -3 -5 1 -10 11 -10 14 0 15 -2 3 -17
-8 -9 -9 -14 -3 -10 7 4 18 -1 25 -10 10 -12 10 -14 2 -9 -7 4 -13 2 -13 -3 0
-6 6 -11 13 -11 6 0 21 -12 31 -27 11 -14 15 -23 9 -20 -5 3 -10 0 -10 -8 0
-8 3 -13 6 -11 6 4 38 -26 34 -31 -8 -8 -2 -23 7 -18 5 3 10 -3 10 -15 0 -14
4 -19 13 -14 7 5 7 1 -3 -12 -8 -10 -11 -16 -6 -12 9 7 20 -2 46 -37 15 -20
15 -20 -8 -1 -20 17 -22 17 -16 3 3 -10 17 -20 30 -23 13 -3 24 -10 24 -16 0
-5 -5 -6 -10 -3 -6 3 -10 2 -10 -3 0 -6 7 -13 16 -16 8 -3 12 -11 8 -17 -4 -7
-3 -10 2 -7 5 3 14 0 21 -7 10 -11 10 -15 0 -18 -7 -3 -1 -6 13 -7 14 -1 19
-4 13 -7 -14 -5 -18 -24 -5 -22 20 3 32 -2 26 -12 -3 -6 6 -22 21 -35 16 -13
25 -24 20 -24 -4 0 4 -12 19 -27 15 -15 24 -33 21 -41 -5 -13 -3 -13 12 -1 10
8 14 9 10 2 -5 -7 14 -33 48 -66 30 -29 55 -59 55 -65 0 -7 5 -12 11 -12 6 0
8 -7 5 -16 -5 -14 -4 -15 8 -5 13 11 15 9 11 -8 -2 -12 0 -19 4 -16 10 5 53
-54 77 -105 4 -8 10 -17 14 -20 3 -3 13 -18 23 -33 10 -15 23 -25 29 -21 7 4
8 3 4 -5 -4 -6 8 -34 26 -63 18 -28 32 -55 30 -60 -1 -5 2 -7 8 -3 6 4 10 -7
10 -27 0 -18 4 -28 8 -23 13 19 30 15 25 -5 -3 -12 0 -20 7 -20 7 0 9 -8 5
-21 -5 -16 -4 -19 6 -14 9 6 11 3 6 -8 -3 -9 -3 -16 1 -16 19 3 33 -2 28 -10
-9 -14 5 -42 16 -35 6 4 4 -4 -3 -17 -12 -23 -11 -23 6 -9 10 8 16 10 12 3 -4
-6 0 -18 8 -26 18 -18 20 -31 3 -21 -7 4 -8 3 -4 -4 4 -7 15 -12 24 -12 15 0
15 -2 2 -10 -13 -8 -13 -10 2 -10 11 0 15 -5 12 -15 -4 -8 -1 -15 6 -15 6 0 8
-4 5 -10 -3 -6 1 -10 11 -10 14 0 14 -3 4 -16 -11 -12 -11 -15 1 -12 8 2 13
-4 13 -14 -1 -10 2 -15 7 -12 5 3 9 -2 9 -11 0 -9 5 -13 10 -10 13 8 8 -18 -5
-27 -6 -4 -2 -8 9 -8 12 0 16 -5 12 -15 -3 -8 0 -15 5 -15 6 0 9 -9 6 -20 -3
-13 0 -20 9 -20 12 0 13 -4 3 -23 -11 -20 -11 -21 4 -9 14 12 16 11 12 -7 -2
-12 0 -21 6 -21 5 0 9 -9 9 -21 0 -13 4 -18 12 -13 10 6 10 4 0 -8 -10 -13
-10 -17 4 -22 9 -4 14 -13 10 -21 -3 -8 -1 -15 5 -15 6 0 8 -4 4 -9 -3 -5 -1
-12 5 -16 6 -4 8 -11 5 -16 -4 -5 -1 -9 6 -9 8 0 7 -5 -2 -17 -10 -11 -10 -14
-2 -9 12 6 18 -11 14 -36 0 -5 4 -8 9 -8 6 0 10 -8 10 -18 0 -10 3 -22 7 -26
7 -6 11 -24 15 -58 1 -10 6 -18 11 -18 5 0 4 -6 -2 -14 -7 -8 -8 -16 -3 -18 5
-1 13 -14 17 -27 5 -18 4 -22 -6 -16 -8 5 -6 -1 4 -13 11 -11 16 -26 12 -31
-3 -6 -1 -11 6 -11 10 0 10 -3 1 -12 -8 -8 -8 -17 -1 -30 5 -10 7 -24 3 -30
-4 -6 -3 -8 3 -5 7 5 11 -11 11 -47 -1 -29 2 -58 6 -65 4 -6 2 -11 -5 -11 -7
0 -6 -8 5 -25 9 -13 16 -28 16 -32 0 -4 -5 -1 -10 7 -6 9 -10 10 -10 3 0 -6 5
-15 10 -18 13 -8 12 -225 -1 -225 -5 0 -6 -7 -3 -15 4 -9 1 -15 -7 -15 -10 0
-10 -3 -2 -11 8 -8 8 -20 3 -35 -5 -13 -5 -26 -1 -29 5 -3 7 -14 4 -25 -3 -11
-9 -17 -14 -14 -5 3 -9 0 -9 -5 0 -6 5 -11 11 -11 8 0 8 -4 0 -14 -6 -7 -9
-21 -5 -30 3 -9 1 -16 -6 -16 -6 0 -9 -4 -6 -9 4 -5 0 -11 -6 -14 -10 -3 -9
-8 2 -22 8 -10 10 -16 4 -12 -14 8 -27 -17 -32 -61 -1 -7 -5 -11 -10 -9 -4 3
-8 -7 -9 -21 0 -14 -8 -31 -16 -36 -7 -6 -14 -13 -13 -16 2 -15 -67 -99 -76
-94 -6 4 -8 3 -5 -3 4 -6 -3 -19 -15 -29 -14 -12 -18 -14 -13 -4 8 13 7 13 -9
1 -13 -11 -14 -16 -4 -22 7 -5 8 -9 2 -9 -5 0 -16 6 -23 13 -11 9 -13 9 -7 0
6 -12 -5 -18 -26 -14 -5 0 -7 -3 -5 -8 1 -5 -2 -9 -7 -9 -5 0 -12 -6 -17 -14
-6 -10 -11 -10 -20 -1 -10 10 -17 7 -35 -12 -13 -14 -35 -26 -49 -27 -47 -2
-50 -3 -57 -12 -3 -5 -56 -11 -117 -14 -85 -3 -111 -2 -111 8 0 10 -3 10 -15
0 -12 -10 -15 -10 -15 1 -1 9 -8 5 -20 -10 -11 -13 -20 -18 -20 -13 0 6 5 14
10 17 15 9 -14 35 -39 35 -29 0 -32 -12 -10 -39 10 -13 19 -18 19 -11 0 7 10
0 22 -15 21 -26 22 -27 36 -9 13 17 14 17 9 1 -7 -19 3 -23 20 -6 17 17 31 3
28 -26 -2 -14 1 -23 6 -19 5 3 9 0 9 -6 0 -6 5 -8 11 -4 8 5 6 10 -5 16 -9 5
-16 14 -16 19 0 6 4 7 10 4 5 -3 8 0 5 7 -4 10 13 13 77 11 46 -1 90 3 99 8 9
5 32 9 50 10 48 2 70 9 64 20 -4 5 1 9 9 9 19 0 21 16 4 23 -7 3 -8 6 -3 6 6
0 21 -8 35 -19 14 -11 18 -18 10 -15 -19 6 -51 -14 -32 -22 17 -7 15 -20 -3
-20 -8 0 -12 4 -9 9 3 4 0 8 -5 8 -6 0 -11 -5 -11 -11 0 -5 -4 -7 -10 -4 -5 3
-10 1 -10 -5 0 -7 7 -9 16 -6 9 3 12 2 9 -5 -4 -5 -16 -7 -27 -3 -14 4 -18 2
-14 -5 9 -14 46 -15 46 -1 0 5 3 9 7 8 14 -5 72 45 66 56 -3 6 -3 8 2 4 4 -4
14 -3 22 3 7 6 13 8 13 3 1 -5 7 2 15 16 12 21 14 22 15 6 0 -14 3 -16 13 -7
8 6 18 7 23 3 4 -4 3 0 -4 9 -9 13 -9 16 3 16 8 0 15 -5 15 -11 0 -6 5 -3 11
6 5 9 16 15 23 12 8 -3 17 0 21 5 3 6 11 9 16 6 5 -3 6 1 3 9 -8 20 -20 20
-27 1 -4 -8 -15 -12 -27 -10 -11 2 -18 0 -15 -5 3 -6 -1 -7 -10 -4 -14 6 -14
8 2 19 13 9 22 10 30 3 9 -7 13 -7 13 0 0 6 -5 14 -10 17 -14 8 7 46 23 42 7
-1 11 3 10 10 -1 6 4 17 12 23 8 7 15 19 15 26 0 8 5 14 11 14 5 0 7 5 3 12
-4 6 -3 8 4 4 17 -10 25 13 10 32 -12 16 -11 16 6 2 18 -14 19 -13 13 2 -3 10
-1 20 5 24 6 4 8 3 5 -3 -8 -12 20 -28 54 -32 8 -1 9 -5 0 -14 -6 -8 -7 -18
-3 -23 4 -4 -1 -2 -10 5 -19 14 -22 7 -19 -39 0 -11 -1 -11 -5 -2 -5 10 -9 10
-20 1 -12 -10 -12 -14 -2 -21 8 -5 0 -6 -20 -3 -30 5 -32 4 -22 -15 8 -16 8
-18 -4 -14 -8 3 -17 1 -21 -5 -3 -6 -15 -11 -26 -11 -11 0 -17 -5 -14 -10 4
-6 10 -8 15 -5 4 3 18 1 31 -3 19 -8 31 -1 76 45 29 30 53 51 53 46 0 -10 20
19 20 30 0 5 -4 5 -10 2 -5 -3 -10 -1 -10 5 0 7 6 10 14 7 8 -3 22 1 33 9 10
9 12 12 4 8 -9 -4 -12 -2 -9 7 3 8 11 13 17 12 10 -3 15 9 9 23 -2 3 5 10 15
15 9 6 17 19 17 30 0 11 10 24 22 29 13 5 18 9 12 9 -6 1 -11 7 -11 15 0 9 7
12 16 8 9 -3 13 -2 9 3 -4 4 -3 14 3 22 9 10 8 13 -2 14 -8 0 -3 5 10 10 14 5
21 15 18 23 -3 8 0 22 8 32 7 10 11 24 8 31 -3 7 0 13 6 13 6 0 8 7 5 15 -4 8
-1 15 6 15 7 0 10 6 7 14 -3 7 0 22 7 32 7 11 13 32 14 48 1 17 8 33 15 38 9
6 9 8 -1 8 -8 0 -10 5 -5 13 4 6 9 20 10 31 7 40 14 102 16 131 1 17 7 33 12
37 6 5 5 8 -3 8 -7 0 -10 5 -7 10 8 13 7 299 -2 313 -5 9 -9 32 -16 117 -2 14
-5 30 -9 35 -4 9 -4 60 1 102 0 7 8 10 18 6 9 -4 14 -2 10 3 -3 6 3 16 15 23
11 7 17 8 13 2 -3 -6 -1 -11 5 -11 6 0 8 -5 4 -12 -5 -7 -3 -8 5 -3 14 8 61
-31 61 -52 0 -8 5 -11 12 -7 7 5 9 2 5 -9 -4 -12 -2 -14 10 -10 12 5 15 2 10
-10 -3 -9 -3 -16 1 -16 20 3 32 -2 27 -11 -4 -6 -3 -10 2 -9 19 3 34 -2 29
-10 -3 -5 1 -12 10 -15 10 -4 13 -2 9 7 -4 6 2 1 13 -13 11 -13 19 -28 16 -31
-2 -4 6 -5 18 -1 15 3 19 2 14 -7 -4 -6 -4 -11 1 -10 4 1 16 1 27 0 15 -1 16
-4 6 -16 -10 -12 -8 -13 10 -10 16 3 20 0 16 -11 -3 -9 -2 -12 5 -9 5 4 18 -3
28 -14 20 -23 37 -29 25 -8 -5 8 -2 8 9 -2 9 -7 17 -19 17 -25 0 -6 -5 -4 -11
4 -9 13 -10 13 -6 0 2 -8 11 -14 19 -12 8 1 20 -8 27 -20 8 -15 10 -17 6 -4
-5 16 -3 17 10 6 8 -7 12 -17 8 -23 -4 -6 -1 -7 6 -3 8 5 22 -4 38 -23 14 -17
35 -31 47 -31 16 0 18 -2 7 -9 -11 -7 -8 -11 10 -17 13 -4 27 -7 32 -6 4 1 7
-4 7 -12 0 -8 7 -17 16 -20 15 -6 15 -4 4 11 -8 10 0 5 16 -12 16 -16 28 -34
26 -40 -2 -5 2 -5 9 2 16 16 70 -23 62 -46 -4 -13 -3 -13 5 -2 11 15 36 6 26
-10 -3 -5 0 -8 8 -7 7 2 12 -2 11 -9 -2 -7 4 -10 13 -6 8 3 22 -3 30 -13 9
-11 13 -12 9 -4 -4 10 -2 9 8 -2 8 -10 19 -18 26 -18 6 0 11 -5 11 -11 0 -5 4
-7 10 -4 5 3 10 1 10 -5 0 -6 3 -9 8 -7 10 7 32 -19 24 -29 -4 -4 -1 -4 6 0 9
5 19 0 28 -13 8 -12 20 -21 26 -21 7 0 3 7 -8 15 -18 14 -17 14 9 4 15 -7 27
-16 27 -21 0 -4 7 -8 16 -8 8 0 12 -5 9 -10 -3 -6 -1 -10 5 -10 6 0 8 -4 5
-10 -3 -5 0 -10 8 -10 13 0 16 -6 19 -55 1 -14 6 -25 10 -25 4 0 8 -7 8 -16 0
-9 5 -12 12 -8 9 5 9 2 -1 -9 -9 -11 -10 -17 -2 -17 6 0 11 -5 11 -11 0 -5 -4
-8 -10 -4 -5 3 -3 -7 5 -22 10 -19 11 -31 3 -40 -7 -9 -7 -13 0 -13 6 0 9 -9
7 -20 -2 -11 0 -20 4 -20 4 0 7 -26 7 -58 -1 -31 2 -72 5 -89 4 -18 4 -33 0
-33 -4 0 -5 -22 -1 -50 4 -27 4 -50 1 -50 -3 0 -5 -33 -4 -72 4 -179 4 -214 3
-223 -1 -5 -2 -28 -2 -50 0 -22 -5 -46 -11 -54 -10 -12 -9 -13 3 -6 12 7 13 6
4 -6 -5 -8 -11 -30 -13 -49 -2 -19 -7 -40 -12 -46 -5 -6 -4 -15 2 -21 8 -8 8
-13 0 -17 -6 -4 -11 -19 -11 -34 0 -15 -4 -34 -10 -42 -6 -9 -5 -17 3 -22 9
-6 9 -8 0 -8 -7 0 -13 -9 -13 -20 0 -11 -6 -20 -12 -20 -10 0 -9 -3 1 -9 10
-6 10 -10 1 -16 -6 -4 -9 -13 -6 -21 3 -8 1 -14 -5 -14 -6 0 -8 -7 -5 -15 3
-9 -1 -18 -9 -21 -7 -3 -11 -12 -8 -20 3 -8 0 -14 -7 -14 -6 0 -9 -4 -5 -9 3
-6 -3 -15 -12 -21 -15 -9 -14 -10 7 -5 l25 7 -23 -17 c-14 -10 -21 -23 -17
-32 4 -13 3 -13 -8 -4 -12 9 -14 6 -12 -14 2 -14 -1 -23 -5 -20 -5 3 -11 1
-15 -5 -3 -5 -1 -10 6 -10 6 0 1 -9 -12 -21 -13 -11 -18 -18 -12 -14 9 4 11 1
7 -9 -3 -9 -14 -16 -23 -16 -14 0 -14 -2 -1 -10 11 -7 11 -10 2 -10 -8 0 -10
-5 -6 -12 5 -7 2 -9 -8 -6 -8 4 -15 0 -15 -8 0 -7 5 -10 11 -7 6 3 0 -6 -13
-20 -14 -15 -22 -30 -18 -33 7 -7 -15 -33 -24 -28 -4 2 -10 -3 -13 -12 -4 -10
-2 -13 6 -8 7 5 8 3 4 -5 -5 -7 -14 -10 -20 -8 -7 3 -13 -1 -13 -9 0 -7 5 -11
11 -8 6 3 -4 -7 -22 -23 -18 -15 -32 -32 -32 -37 0 -6 7 -1 15 10 10 13 13 14
10 3 -3 -9 -19 -26 -35 -38 -18 -12 -30 -31 -30 -44 0 -18 -2 -19 -10 -7 -8
13 -10 12 -10 -2 0 -10 -4 -18 -9 -18 -6 0 -8 -9 -6 -21 4 -18 2 -19 -12 -7
-12 9 -15 9 -9 0 4 -7 1 -14 -7 -18 -9 -3 -18 -17 -22 -31 -5 -20 -8 -23 -21
-12 -12 10 -13 9 -8 -7 4 -10 4 -16 0 -12 -14 12 -35 -15 -24 -30 8 -9 7 -11
-4 -7 -9 4 -18 0 -21 -9 -4 -9 -12 -14 -19 -12 -7 1 -10 1 -6 -1 14 -8 8 -25
-7 -20 -8 4 -17 1 -21 -5 -5 -7 -2 -8 7 -4 8 4 3 -2 -11 -14 -14 -12 -19 -18
-11 -14 10 5 12 3 7 -5 -5 -7 -15 -10 -23 -6 -14 5 -14 3 -2 -12 7 -10 9 -15
5 -11 -5 5 -16 -1 -23 -12 -8 -11 -20 -17 -26 -14 -7 4 -9 4 -5 -1 12 -13 -12
-47 -29 -41 -13 5 -13 4 -4 -8 9 -11 8 -15 -6 -21 -10 -5 -21 -7 -25 -7 -5 1
-8 -4 -8 -12 0 -8 -7 -16 -15 -20 -8 -3 -15 -12 -15 -20 0 -10 -6 -13 -15 -10
-11 5 -13 2 -8 -11 5 -15 2 -17 -15 -13 -12 3 -21 3 -20 -1 2 -22 -4 -40 -18
-45 -10 -4 -13 -2 -8 6 4 7 3 8 -5 4 -6 -4 -10 -15 -9 -24 2 -12 -4 -17 -19
-16 -19 0 -21 -2 -10 -14 10 -13 8 -14 -13 -8 -14 4 -20 4 -15 -1 6 -4 11 -14
13 -21 2 -10 -2 -10 -19 -2 -19 11 -20 10 -8 -12 11 -21 11 -22 -5 -9 -9 8
-19 11 -23 7 -3 -3 -1 -6 5 -6 7 0 12 -5 12 -11 0 -6 -7 -8 -16 -5 -10 4 -13
2 -8 -6 5 -8 1 -9 -12 -4 -10 4 -15 4 -12 0 4 -4 -2 -18 -12 -32 -11 -13 -20
-30 -20 -37 0 -20 -37 -48 -52 -39 -9 5 -8 2 2 -11 14 -17 13 -18 -2 -12 -10
3 -20 1 -24 -5 -5 -7 -2 -8 6 -3 8 5 11 3 8 -6 -3 -8 -11 -13 -17 -12 -6 2
-10 0 -10 -5 4 -21 -2 -34 -14 -29 -8 3 -14 -1 -14 -9 0 -7 5 -11 11 -8 6 3 0
-4 -14 -16 -14 -12 -19 -18 -11 -14 9 5 12 3 7 -4 -4 -7 -15 -12 -24 -12 -14
0 -14 -2 -3 -9 11 -7 10 -11 -7 -22 -11 -7 -18 -19 -15 -26 3 -7 0 -13 -7 -13
-6 0 -8 -5 -5 -10 3 -6 1 -10 -4 -10 -6 0 -11 -7 -11 -16 0 -8 -4 -12 -10 -9
-6 3 -7 -1 -4 -9 4 -10 1 -16 -10 -16 -9 0 -13 -6 -10 -14 3 -7 -2 -16 -11
-20 -9 -3 -15 -14 -13 -23 2 -11 -2 -17 -10 -15 -8 1 -11 -1 -8 -6 7 -12 -25
-93 -34 -87 -4 2 -6 -7 -4 -20 1 -14 -2 -27 -7 -31 -5 -3 -7 -10 -4 -15 4 -5
1 -9 -4 -9 -6 0 -11 -5 -11 -11 0 -5 6 -7 12 -3 7 4 6 -1 -3 -12 -9 -10 -14
-25 -11 -33 3 -8 0 -11 -7 -7 -7 5 -11 -3 -11 -23 0 -17 -4 -31 -10 -31 -5 0
-7 -7 -4 -15 4 -8 1 -15 -6 -15 -6 0 -8 -5 -5 -10 4 -6 1 -18 -7 -27 -11 -14
-11 -16 2 -8 12 6 13 5 2 -6 -6 -7 -12 -28 -12 -47 0 -18 -3 -31 -8 -29 -7 5
-11 -23 -11 -77 0 -15 -6 -35 -13 -44 -7 -9 -8 -13 -2 -9 6 3 11 0 11 -8 0 -8
-4 -12 -9 -8 -6 3 -8 -4 -6 -14 2 -11 -3 -28 -11 -37 -12 -14 -12 -17 -1 -14
17 4 14 -69 -3 -91 -10 -12 -9 -13 3 -6 13 8 13 6 1 -8 -7 -9 -11 -24 -7 -32
3 -8 2 -15 -2 -15 -4 0 -6 -60 -5 -132 1 -73 2 -150 2 -171 1 -25 5 -36 12
-31 7 4 7 -1 -1 -16 -10 -18 -9 -21 1 -15 8 6 11 4 6 -7 -3 -9 0 -21 6 -28 10
-10 8 -12 -8 -6 -17 5 -18 4 -5 -6 9 -7 15 -20 15 -28 0 -8 3 -18 8 -21 4 -3
9 -22 10 -42 1 -21 5 -37 10 -37 4 0 7 -9 7 -21 0 -13 4 -18 12 -13 10 6 10 4
0 -8 -9 -12 -10 -17 -1 -20 6 -2 12 -18 12 -35 1 -17 5 -29 8 -27 9 5 16 -16
14 -43 -1 -12 1 -21 4 -19 3 2 11 -2 18 -9 10 -11 10 -15 0 -18 -9 -4 -9 -6 1
-6 6 -1 12 -10 12 -21 0 -11 5 -20 10 -20 6 0 10 -7 10 -16 0 -8 7 -22 15 -31
8 -8 13 -19 10 -24 -4 -5 -1 -9 5 -9 6 0 8 -4 5 -10 -3 -5 1 -10 11 -10 13 0
14 -3 5 -14 -10 -11 -8 -16 9 -21 15 -5 20 -13 17 -26 -3 -10 -2 -18 2 -17 21
2 30 -4 24 -19 -4 -11 -3 -14 5 -9 7 4 12 2 12 -4 0 -6 12 -22 26 -35 17 -16
22 -25 13 -25 -9 0 -10 -3 -4 -8 6 -4 18 -20 28 -35 10 -15 22 -25 27 -22 6 4
10 1 10 -5 0 -6 5 -8 11 -5 6 4 9 0 7 -10 -2 -10 4 -20 12 -22 13 -4 13 -3 0
7 -13 10 -13 11 0 7 8 -2 14 -11 12 -21 -2 -11 4 -16 20 -16 19 0 20 -2 8 -10
-12 -8 -11 -10 7 -10 17 0 21 -5 18 -21 -3 -17 -1 -19 10 -9 10 9 15 7 20 -9
8 -25 41 -45 61 -37 9 3 14 -1 14 -13 0 -10 7 -22 16 -25 26 -10 29 -7 8 10
-18 14 -18 15 4 4 12 -6 20 -15 17 -19 -2 -5 3 -15 12 -22 12 -10 14 -10 9 -1
-4 6 -3 12 2 12 5 0 12 -10 16 -23 5 -18 8 -20 16 -7 8 13 10 12 10 -2 0 -10
5 -18 11 -18 5 0 7 5 3 12 -4 7 -3 8 4 4 7 -4 12 -13 12 -21 0 -7 7 -16 16
-19 10 -4 13 -2 8 6 -4 7 8 1 26 -12 18 -13 31 -19 27 -14 -3 6 0 11 8 11 8 0
12 -4 9 -9 -4 -5 3 -12 15 -15 12 -3 21 -10 21 -17 0 -6 5 -4 10 4 8 12 12 13
19 2 12 -19 15 -19 37 -2 15 11 16 11 7 0 -7 -8 -13 -17 -13 -20 0 -5 29 -5
61 -1 12 2 4 42 -11 51 -8 5 -12 10 -8 10 4 0 -4 11 -18 25 -14 14 -23 29 -20
34 3 5 -3 11 -14 14 -11 3 -20 12 -20 21 0 9 -5 16 -11 16 -5 0 -8 4 -5 9 3 5
-1 11 -9 15 -8 3 -15 13 -15 21 0 9 -4 13 -10 10 -6 -3 -7 1 -4 9 3 9 1 16 -4
16 -10 0 -25 31 -27 55 0 6 -6 9 -13 8 -16 -4 -15 9 1 26 6 8 7 11 1 8 -6 -3
-18 3 -27 14 -12 13 -13 19 -4 20 6 0 2 5 -11 11 -12 6 -22 15 -22 20 0 5 5 6
11 2 7 -4 10 -1 7 7 -3 8 -11 13 -17 12 -6 -2 -10 0 -9 5 0 4 -2 15 -7 25 -4
10 -2 24 6 33 7 8 8 14 3 13 -26 -5 -34 4 -34 36 0 21 -5 35 -12 35 -9 0 -8 4
2 10 12 8 13 12 2 19 -8 4 -12 19 -10 32 2 13 -4 29 -12 36 -13 11 -13 12 0
13 11 0 12 2 3 8 -7 5 -13 29 -13 57 0 114 -2 130 -13 137 -7 4 -7 8 -2 8 6 0
11 9 11 20 0 11 -4 20 -9 20 -5 0 -4 7 3 15 10 11 10 15 0 15 -8 0 -11 23 -9
83 1 45 5 86 8 92 7 13 9 34 11 138 2 48 7 90 13 94 6 4 7 1 2 -7 -5 -8 -4
-11 2 -7 6 4 8 19 5 33 -4 21 -2 25 9 19 12 -7 12 -6 1 7 -13 16 -13 70 0 62
4 -3 8 -1 8 5 0 5 14 9 30 9 22 -1 29 -5 26 -15 -3 -7 0 -13 6 -13 7 0 6 -5
-2 -15 -15 -18 -34 -20 -23 -2 14 23 11 33 -11 32 -11 -2 -20 -8 -18 -14 1 -7
-2 -10 -8 -6 -5 3 -10 1 -10 -4 0 -14 17 -14 25 -1 3 6 11 10 17 10 7 0 6 -5
-1 -14 -13 -15 1 -32 18 -21 5 3 12 1 16 -5 3 -5 -2 -10 -11 -10 -15 0 -15 -2
2 -18 20 -18 31 -48 14 -37 -5 3 -10 1 -10 -4 0 -6 5 -11 12 -11 9 0 9 -3 0
-12 -7 -7 -12 -17 -12 -23 0 -5 5 -3 10 5 7 11 10 3 11 -30 1 -25 1 -48 0 -52
0 -5 4 -8 9 -8 6 0 10 -18 10 -40 0 -25 5 -40 13 -40 8 0 7 -4 -3 -10 -10 -6
-11 -10 -2 -10 6 0 12 -7 12 -16 0 -9 5 -12 12 -8 9 5 9 2 -1 -9 -11 -14 -11
-17 0 -17 11 0 11 -2 -1 -10 -13 -9 -13 -10 0 -11 8 -1 19 -1 23 0 5 1 4 -6
-2 -16 -7 -13 -3 -23 16 -41 14 -13 22 -29 19 -38 -3 -8 -2 -12 4 -9 6 3 10
-5 10 -19 0 -18 5 -26 17 -26 9 0 14 -3 10 -6 -9 -9 16 -33 28 -26 6 3 4 -2
-4 -12 -8 -9 -10 -16 -5 -15 5 1 15 1 23 0 11 -1 11 -4 0 -18 -8 -9 -9 -14 -2
-10 6 4 14 1 16 -5 4 -10 8 -10 15 1 6 8 12 9 16 3 3 -6 0 -13 -6 -16 -10 -5
-10 -7 -1 -12 7 -3 13 -15 13 -25 0 -11 5 -17 10 -14 6 3 10 -2 11 -12 0 -16
1 -16 9 2 8 18 9 18 9 -5 1 -20 3 -22 11 -10 9 13 10 13 11 0 1 -8 1 -17 1
-20 0 -3 8 -7 19 -7 11 -1 17 2 14 7 -3 5 -1 12 5 15 6 4 10 3 9 -2 -4 -21 3
-31 19 -29 9 2 17 11 17 22 0 10 4 25 9 33 6 10 5 12 -2 7 -7 -4 -12 -2 -12 5
0 6 -8 18 -17 26 -11 8 -12 11 -3 7 13 -7 13 -5 2 8 -7 9 -12 20 -11 24 3 18
-14 54 -25 54 -6 0 -4 5 4 10 10 6 11 10 3 10 -7 0 -13 10 -13 23 0 13 -5 28
-12 35 -9 9 -9 12 3 12 10 1 9 5 -5 15 -12 9 -21 31 -23 57 -3 24 -9 46 -15
49 -7 4 -6 9 2 14 8 5 9 10 2 14 -6 4 -12 37 -13 74 -1 37 -6 70 -11 73 -4 3
-8 142 -8 310 0 236 3 304 13 304 8 0 7 4 -3 10 -10 6 -11 10 -2 10 6 0 12 12
12 26 0 14 4 22 10 19 6 -3 7 1 4 9 -3 9 -11 13 -17 9 -6 -3 -7 -1 -3 6 4 6
12 9 17 6 5 -4 9 2 9 12 0 11 6 25 12 32 11 11 10 12 -2 6 -12 -7 -13 -6 -3 7
7 8 10 18 6 21 -3 4 -1 7 6 7 7 0 9 5 6 10 -3 6 0 10 7 10 9 0 9 3 -2 10 -13
8 -12 10 4 10 14 0 16 3 7 14 -9 10 -8 16 4 26 8 7 15 19 15 27 0 8 4 12 9 9
4 -3 7 6 5 19 -1 14 2 23 6 20 5 -3 11 -1 15 5 3 5 0 10 -7 10 -9 1 -8 4 3 13
9 7 15 20 13 30 -1 9 6 23 17 30 10 8 16 17 12 20 -3 4 -1 7 6 7 8 0 11 7 7
15 -4 10 2 19 16 24 14 5 17 10 10 15 -9 5 -9 10 1 20 6 8 15 12 18 10 3 -2 5
8 3 21 -1 14 2 23 7 19 5 -3 6 -11 3 -17 -4 -7 -3 -8 2 -4 5 5 10 13 10 18 1
5 2 14 3 20 0 5 7 7 14 3 7 -5 6 0 -3 11 -9 11 -10 16 -2 11 19 -11 35 3 21
20 -9 11 -7 14 10 14 11 0 21 5 21 11 0 5 -6 7 -12 4 -7 -4 -2 3 12 15 14 12
19 18 11 14 -10 -5 -12 -3 -7 5 6 8 12 9 20 2 16 -14 29 -2 16 14 -7 9 -6 16
5 25 8 7 15 9 15 5 0 -3 12 8 26 25 17 19 32 29 42 25 12 -4 12 -3 3 8 -16 20
10 42 28 24 10 -9 12 -9 9 2 -2 8 6 17 17 19 11 2 28 14 37 25 13 14 18 16 18
6 1 -10 5 -8 15 5 8 11 15 16 15 10 0 -5 5 -2 10 6 9 13 10 13 10 0 1 -8 6 -4
11 9 8 20 11 22 27 10 9 -7 14 -10 10 -5 -9 11 14 35 28 29 6 -2 14 3 18 12 3
9 10 14 14 11 15 -9 85 15 119 40 17 13 34 24 37 24 7 0 103 63 136 89 13 11
28 17 32 15 3 -2 10 1 14 7 4 8 3 9 -4 5 -7 -4 -12 -3 -12 2 0 12 29 24 40 17
5 -3 12 0 16 6 5 8 3 9 -6 4 -9 -6 -11 -4 -6 4 5 7 15 10 23 6 13 -4 14 -3 4
9 -11 13 -9 15 8 11 13 -2 21 1 21 9 0 8 9 16 20 19 11 3 20 11 20 17 0 9 -5
9 -18 -1 -15 -13 -16 -12 -4 3 7 9 22 15 34 13 16 -3 17 -1 8 10 -13 16 1 28
24 19 9 -3 16 -2 16 4 0 6 -6 13 -12 15 -7 3 -3 6 10 6 12 1 23 6 23 11 1 6 2
16 3 23 1 6 11 12 22 11 16 -1 20 4 18 22 -1 17 2 21 14 17 11 -5 13 -3 7 7
-6 10 -4 12 9 7 14 -5 17 -3 12 8 -3 8 -1 15 5 15 6 0 7 4 4 10 -3 6 -1 10 5
10 6 0 9 4 5 9 -3 6 4 8 15 6 22 -4 28 11 8 17 -8 3 -4 9 10 17 12 6 22 16 22
22 0 6 -6 7 -12 3 -7 -3 -1 6 15 20 15 15 25 31 22 36 -3 4 -2 10 2 12 5 2 19
16 33 33 14 16 17 23 7 16 -15 -12 -17 -12 -11 3 3 9 10 16 14 16 4 0 11 10
15 23 4 12 8 24 9 27 1 3 6 28 11 55 9 53 11 64 15 68 1 1 3 20 4 42 2 22 6
51 10 65 4 14 8 95 9 180 l2 155 28 1 c15 1 27 -4 28 -10 0 -6 2 -20 5 -31 4
-20 30 -223 39 -305 13 -109 17 -130 29 -123 7 5 7 2 -1 -8 -7 -8 -8 -20 -4
-28 4 -7 4 -34 -1 -62 -9 -51 3 -96 24 -83 12 8 2 284 -14 374 -5 30 -11 75
-13 99 -3 39 -11 88 -29 201 -3 14 -8 46 -11 72 -4 26 -10 47 -14 46 -3 0 -13
0 -21 1 -13 1 -13 2 0 11 10 6 11 10 3 10 -7 0 -13 9 -13 20 0 11 5 20 10 20
6 0 10 5 10 11 0 5 -5 7 -11 3 -8 -4 -7 0 1 15 6 12 10 32 9 44 -4 30 51 137
71 137 13 0 13 -1 0 -10 -13 -8 -13 -10 2 -10 9 0 20 -5 24 -12 5 -7 3 -8 -6
-3 -9 5 -11 4 -6 -3 4 -7 14 -12 22 -12 8 0 14 -10 14 -22 0 -17 3 -19 9 -9 5
7 14 10 20 6 9 -5 9 -11 -1 -22 -11 -14 -10 -15 10 -8 22 6 23 5 12 -15 -11
-20 -10 -21 10 -10 13 7 20 8 16 2 -3 -6 -2 -13 4 -17 6 -4 8 -10 6 -14 -3 -4
5 -7 17 -7 12 1 22 -5 23 -11 1 -7 2 -17 3 -23 0 -5 6 -10 12 -10 5 0 7 6 3
13 -5 9 -3 9 7 -1 12 -11 12 -14 -1 -22 -12 -8 -10 -10 8 -10 19 0 26 -9 24
-32 -1 -3 6 -12 16 -20 15 -12 16 -11 3 4 -7 10 -11 18 -8 18 13 0 56 -74 50
-84 -4 -6 0 -5 9 2 13 10 18 10 24 1 4 -8 3 -9 -4 -5 -7 4 -12 2 -12 -3 0 -6
5 -11 10 -11 6 0 10 -7 10 -16 0 -9 5 -12 12 -8 8 5 9 2 5 -10 -6 -14 -3 -17
9 -12 15 6 15 4 3 -11 -8 -9 -9 -14 -3 -10 6 4 21 -2 33 -12 16 -14 18 -21 9
-24 -8 -4 -7 -6 4 -6 10 -1 17 -4 15 -9 -1 -4 1 -7 4 -7 13 0 38 -28 33 -36
-3 -5 1 -9 8 -9 11 0 10 -2 0 -9 -11 -7 -10 -9 3 -15 9 -3 13 -10 10 -16 -4
-6 1 -7 12 -3 16 6 16 5 4 -10 -12 -16 -12 -17 5 -11 10 4 16 4 12 0 -4 -5 5
-19 20 -33 15 -13 21 -22 15 -18 -7 3 -13 1 -13 -4 0 -6 5 -11 10 -11 6 0 10
-7 10 -16 0 -8 4 -13 9 -9 5 3 13 0 17 -6 4 -7 3 -9 -4 -5 -6 3 -13 2 -17 -4
-3 -5 3 -10 14 -10 12 0 20 -4 18 -9 -1 -5 7 -17 18 -26 11 -9 15 -14 9 -11
-6 3 -11 -1 -11 -8 0 -8 7 -12 14 -9 8 3 13 2 12 -3 -4 -22 2 -34 19 -35 14 0
14 -2 -3 -9 -18 -8 -19 -9 -1 -9 12 -1 16 -6 12 -16 -3 -8 -1 -15 4 -15 5 0
14 -10 21 -21 8 -15 8 -19 0 -15 -16 10 -14 -3 3 -20 11 -11 16 -11 20 -1 3 6
3 2 1 -9 -4 -14 0 -24 11 -28 12 -5 14 -9 5 -20 -9 -10 -7 -17 6 -27 17 -13
17 -13 3 6 -14 19 -14 19 3 6 14 -11 15 -16 5 -29 -10 -13 -10 -14 0 -8 16 10
16 -16 0 -33 -7 -8 -8 -11 -3 -8 6 3 11 -3 11 -13 0 -18 -1 -18 -19 -3 -17 16
-17 16 -11 0 3 -10 3 -17 -2 -15 -5 2 -9 1 -10 -2 -3 -18 -27 -50 -38 -50 -8
0 -16 -9 -19 -21 -3 -12 -10 -18 -16 -15 -5 4 -20 -4 -33 -17 -13 -13 -32 -30
-42 -38 -18 -12 -19 -12 -12 1 4 8 1 7 -7 -3 -8 -10 -24 -19 -36 -20 -12 -1
-21 -5 -21 -10 0 -4 -6 -7 -12 -6 -28 3 -38 -2 -38 -21 0 -12 -5 -17 -14 -14
-8 3 -17 0 -22 -7 -4 -8 -3 -10 4 -5 7 4 12 5 12 2 0 -3 -10 -10 -21 -17 -17
-9 -20 -8 -14 3 6 10 5 11 -6 0 -7 -6 -23 -12 -36 -12 -13 0 -23 -5 -23 -11 0
-8 -4 -8 -14 0 -10 9 -17 7 -27 -6 -13 -16 -12 -17 4 -4 9 7 17 9 17 3 0 -13
-48 -44 -59 -37 -5 2 -12 -2 -15 -11 -5 -13 -9 -14 -21 -4 -12 10 -16 9 -20
-2 -4 -10 -23 -13 -70 -12 -54 1 -67 -2 -83 -20 -13 -16 -29 -21 -55 -21 -20
1 -37 -2 -37 -7 0 -5 -4 -6 -10 -3 -5 3 -10 2 -10 -3 0 -5 -10 -8 -22 -7 -28
2 -49 -5 -44 -14 2 -3 -13 -5 -35 -3 -22 2 -46 -1 -53 -7 -11 -9 -15 -9 -19 1
-4 9 -6 7 -6 -4 -1 -9 -6 -20 -13 -24 -7 -5 -8 -3 -3 6 5 8 3 11 -6 8 -8 -3
-13 -10 -12 -16 1 -5 -4 -13 -12 -16 -8 -3 -15 -1 -15 5 0 5 -6 4 -14 -3 -8
-7 -11 -17 -8 -23 3 -5 -2 -4 -11 4 -14 11 -18 11 -23 -2 -3 -9 -12 -13 -20
-10 -8 3 -14 1 -14 -5 0 -6 -16 -16 -35 -22 -19 -6 -35 -15 -35 -20 0 -8 -63
-29 -97 -32 -9 -1 -10 -5 -2 -14 8 -9 5 -11 -10 -7 -13 3 -23 -2 -31 -17 -8
-14 -18 -20 -30 -17 -15 4 -17 0 -14 -19 3 -17 0 -24 -11 -24 -10 0 -13 5 -9
12 4 7 3 8 -4 4 -6 -4 -9 -13 -5 -21 4 -11 1 -13 -11 -9 -12 5 -19 0 -23 -14
-3 -14 -10 -19 -21 -15 -12 5 -14 2 -9 -12 6 -15 5 -16 -8 -5 -9 7 -15 9 -14
4 5 -27 -23 -50 -55 -45 -5 1 -6 -6 -2 -15 5 -13 2 -15 -13 -11 -13 3 -18 0
-15 -8 3 -6 -2 -18 -11 -25 -13 -11 -15 -10 -9 6 6 18 6 18 -9 -1 -8 -11 -13
-23 -11 -27 2 -4 0 -9 -5 -12 -5 -4 -13 -2 -16 4 -9 15 -35 -7 -35 -29 0 -14
-2 -14 -10 -1 -8 12 -10 11 -10 -7 0 -17 -5 -21 -21 -18 -17 4 -19 2 -8 -11 6
-8 9 -18 5 -21 -4 -4 -10 -2 -14 4 -5 9 -12 6 -21 -8 -7 -12 -8 -18 -2 -15 7
5 8 1 5 -9 -4 -9 -9 -14 -11 -11 -8 7 -48 -38 -48 -54 0 -19 -44 -62 -56 -54
-5 3 -9 0 -9 -5 0 -6 6 -11 13 -11 6 0 1 -9 -13 -20 -14 -11 -19 -20 -12 -20
6 0 12 -5 12 -11 0 -5 -3 -8 -7 -6 -5 3 -13 -1 -20 -8 -10 -11 -10 -15 0 -18
9 -4 9 -6 -1 -6 -7 -1 -10 -5 -7 -11 3 -5 -2 -10 -12 -10 -15 0 -16 -2 -3 -10
13 -9 13 -10 0 -10 -13 0 -13 -2 -1 -9 16 -10 16 -8 -38 -159 -27 -77 -40
-127 -38 -156 4 -79 21 -71 62 28 44 104 104 225 121 243 6 7 15 9 18 5 4 -3
4 1 0 11 -4 11 0 19 10 23 9 3 13 10 10 15 -3 5 0 9 5 9 6 0 11 6 11 13 0 7 9
19 19 27 11 7 18 17 16 20 -2 3 18 30 44 58 27 29 47 52 46 52 -1 0 24 26 56
58 54 52 76 84 47 66 -7 -4 -8 -3 -4 4 4 6 13 9 20 6 8 -3 17 0 22 7 5 8 3 10
-5 4 -9 -5 -9 -1 1 14 11 18 13 19 19 4 4 -12 8 -13 13 -5 4 7 4 12 -1 12 -4
0 10 10 32 21 22 12 42 25 45 28 3 4 21 18 40 31 33 23 34 24 20 3 -105 -152
-130 -195 -123 -207 4 -6 -1 -5 -11 3 -15 12 -17 12 -14 0 2 -8 -3 -13 -10
-11 -8 1 -11 -2 -7 -8 3 -6 12 -7 18 -4 8 5 8 3 0 -7 -15 -15 -18 -33 -5 -25
5 3 9 -1 9 -9 0 -8 -4 -12 -8 -10 -4 3 -9 -2 -13 -10 -3 -8 -12 -12 -21 -9
-10 4 -15 0 -15 -13 0 -10 -5 -24 -12 -31 -9 -9 -9 -12 1 -12 7 0 9 -5 6 -10
-4 -6 -11 -8 -16 -5 -9 6 -13 -8 -10 -34 2 -7 -2 -10 -7 -7 -6 3 -12 -1 -16
-9 -3 -8 0 -15 7 -15 7 0 8 -3 2 -8 -5 -4 -15 -17 -22 -29 -10 -17 -10 -23 0
-26 7 -3 5 -6 -5 -6 -9 -1 -20 -6 -24 -13 -5 -7 -3 -8 7 -3 11 7 12 6 2 -7 -7
-8 -10 -18 -6 -21 3 -4 0 -7 -7 -7 -7 0 -10 -3 -7 -7 4 -3 2 -12 -4 -20 -9
-10 -8 -13 2 -13 11 0 11 -2 2 -8 -7 -5 -14 -20 -15 -35 -1 -15 -5 -27 -8 -27
-3 0 -7 -19 -9 -42 -1 -23 -7 -46 -14 -50 -9 -6 -8 -8 2 -8 10 0 11 -3 2 -14
-13 -16 -15 -386 -2 -386 5 0 9 -28 10 -62 1 -37 6 -65 14 -70 9 -6 8 -8 -3
-8 -11 -1 -10 -4 4 -15 11 -8 14 -15 8 -15 -9 0 -10 -6 -4 -17 4 -10 7 -28 7
-40 -1 -12 2 -20 7 -17 5 3 7 -16 5 -45 -2 -41 0 -51 12 -52 10 0 12 -2 4 -6
-10 -3 -10 -7 0 -18 7 -7 14 -12 17 -10 3 2 6 -8 7 -22 0 -14 5 -28 10 -32 7
-5 12 -23 15 -58 1 -7 5 -13 10 -13 16 0 7 -58 -13 -81 l-20 -24 17 28 c9 15
15 30 12 32 -3 3 -13 -13 -24 -35 -10 -22 -24 -40 -31 -40 -6 0 -15 -5 -19
-12 -5 -7 -3 -8 6 -3 9 5 11 4 6 -4 -6 -9 -11 -9 -21 -1 -8 7 -15 7 -19 1 -4
-5 -2 -12 4 -16 5 -3 10 -11 10 -18 0 -8 -3 -8 -11 0 -9 9 -17 6 -31 -13 -11
-13 -24 -21 -30 -18 -7 4 -8 2 -4 -5 6 -9 12 -9 24 1 10 7 6 0 -7 -15 -14 -15
-31 -27 -38 -27 -8 0 -12 -4 -9 -9 9 -14 -20 -32 -39 -24 -15 5 -17 3 -12 -12
7 -16 5 -16 -10 -4 -11 9 -14 10 -9 2 5 -9 1 -13 -11 -13 -15 0 -16 -2 -3 -10
11 -7 11 -10 2 -10 -7 0 -10 -4 -7 -10 3 -6 -1 -7 -9 -4 -9 3 -16 1 -16 -6 0
-6 -4 -8 -10 -5 -6 3 -10 1 -10 -6 0 -12 -38 -49 -51 -49 -4 0 -6 -25 -3 -56
3 -42 1 -53 -9 -48 -9 6 -8 3 1 -8 7 -9 12 -22 11 -30 -3 -18 31 -98 42 -98 5
0 9 -9 9 -19 0 -10 7 -22 16 -25 8 -3 13 -10 10 -14 -3 -5 1 -9 9 -9 8 0 12 4
9 9 -4 5 4 4 15 -4 18 -11 23 -11 31 2 5 8 10 10 10 5 0 -6 14 -11 30 -11 27
-2 29 0 18 15 -12 14 -11 14 4 3 20 -16 62 -7 51 11 -4 7 1 6 10 -2 13 -10 17
-10 17 -1 0 7 7 10 15 6 10 -3 15 1 15 12 0 14 2 15 10 2 8 -12 10 -12 15 2 4
9 12 15 20 12 7 -3 15 2 19 11 3 10 13 15 21 12 9 -4 12 -1 8 9 -3 8 -2 14 3
13 5 -1 18 -1 29 0 15 1 17 3 7 10 -11 7 -11 9 2 14 8 3 17 1 20 -6 2 -7 5 -2
5 10 1 17 5 21 18 16 10 -4 14 -2 10 4 -3 5 -1 10 6 10 7 0 20 4 29 8 11 4 18
3 18 -5 0 -6 -5 -8 -12 -4 -7 4 -8 3 -4 -4 4 -6 14 -8 24 -5 14 6 15 4 5 -9
-7 -8 -10 -18 -6 -21 3 -4 1 -7 -5 -7 -7 0 -12 5 -12 10 0 6 -5 10 -10 10 -7
0 -7 -7 0 -20 12 -22 6 -40 -13 -40 -7 0 -6 4 3 11 13 9 13 10 0 6 -8 -2 -15
-15 -15 -28 0 -13 -8 -35 -17 -49 -10 -13 -18 -21 -18 -16 0 5 -9 1 -20 -9
-11 -10 -20 -23 -20 -29 0 -6 5 -3 11 6 5 10 15 18 21 18 6 0 -1 -11 -16 -25
-15 -14 -25 -29 -22 -34 3 -4 -4 -17 -15 -27 -11 -10 -17 -24 -14 -32 5 -12 3
-13 -10 -2 -9 7 -15 9 -14 4 4 -20 -2 -35 -11 -29 -6 3 -7 -1 -4 -9 4 -10 1
-16 -10 -16 -9 0 -13 -6 -10 -14 3 -7 -6 -23 -20 -33 -14 -11 -23 -22 -21 -25
2 -2 -9 -19 -25 -36 -16 -18 -26 -32 -22 -32 4 0 3 -4 -3 -8 -5 -4 -19 -23
-29 -42 -11 -19 -27 -41 -35 -48 -13 -11 -13 -12 -1 -7 8 4 3 -4 -12 -17 -15
-14 -25 -28 -21 -32 3 -3 1 -6 -5 -6 -7 0 -12 -6 -12 -13 0 -7 -9 -23 -21 -36
-12 -12 -18 -25 -15 -28 3 -4 -3 -13 -14 -20 -11 -8 -18 -18 -16 -22 3 -4 -5
-18 -18 -32 -12 -13 -23 -28 -25 -34 -2 -5 -7 -9 -13 -7 -5 1 -7 -2 -3 -7 3
-6 -3 -19 -14 -30 -11 -11 -17 -21 -15 -24 2 -2 -2 -10 -11 -17 -8 -7 -15 -19
-15 -26 0 -8 -4 -14 -10 -14 -5 0 -10 -7 -10 -15 0 -8 -3 -15 -7 -15 -5 0 -21
-23 -38 -50 -16 -28 -33 -50 -38 -50 -4 0 -6 -4 -3 -8 3 -5 -8 -24 -25 -43
-28 -32 -33 -44 -30 -62 1 -5 -3 -6 -8 -2 -6 3 -13 -6 -17 -20 -3 -14 -9 -25
-13 -25 -4 0 -14 -12 -22 -28 -8 -15 -22 -35 -32 -44 -10 -9 -18 -19 -18 -22
1 -10 -12 -41 -19 -46 -4 -3 -28 -39 -55 -80 -106 -166 -160 -245 -167 -248
-5 -2 -6 -8 -2 -13 3 -5 0 -9 -6 -9 -6 0 -8 -4 -5 -10 3 -5 1 -10 -5 -10 -6 0
-9 -4 -6 -9 3 -5 -1 -12 -10 -15 -9 -4 -14 -9 -11 -12 2 -3 -6 -17 -19 -31
-13 -14 -24 -32 -24 -39 0 -7 -6 -19 -12 -26 -7 -7 -14 -21 -16 -30 -3 -17
343 -18 7055 -18 l7058 0 1 22 c1 13 4 50 8 83 3 33 8 80 11 105 3 25 8 59 11
75 3 17 7 39 9 50 12 76 18 124 19 153 0 17 3 32 6 32 12 0 15 284 6 485 -15
333 -17 427 -5 441 6 7 8 17 5 23 -3 5 6 13 22 19 26 9 102 72 87 72 -5 0 -1
8 8 18 10 10 14 22 10 25 -3 4 -2 7 4 7 5 0 10 6 10 13 0 6 5 37 11 67 6 30
11 127 11 215 0 101 4 161 11 163 5 2 8 8 4 13 -10 17 6 9 34 -19 16 -15 35
-28 43 -30 8 -2 16 -8 17 -13 2 -5 11 -9 19 -9 10 0 14 -6 11 -18 -4 -12 1
-18 13 -18 10 0 15 4 12 9 -3 5 4 3 15 -4 17 -11 19 -16 9 -28 -10 -12 -9 -13
12 -2 15 8 21 9 17 2 -4 -6 -2 -11 4 -11 7 0 10 -7 6 -18 -6 -16 -5 -16 8 1
12 15 15 15 26 2 7 -8 25 -15 41 -15 16 0 29 -4 29 -9 0 -5 7 -12 16 -15 10
-4 13 -2 8 7 -6 8 -3 8 9 -1 9 -8 22 -12 29 -9 7 2 23 0 35 -4 14 -5 25 -4 29
2 3 6 12 8 20 5 15 -6 37 27 26 40 -4 5 1 2 11 -5 15 -12 17 -12 11 4 -5 13
-4 16 4 11 8 -5 10 -1 5 10 -4 11 -2 15 4 11 6 -4 14 0 17 9 3 9 2 12 -5 8 -6
-3 -5 3 2 14 7 12 15 19 19 17 3 -2 6 33 8 77 3 65 1 79 -10 72 -9 -5 -8 -2 2
11 8 10 10 16 5 13 -6 -4 -19 1 -30 9 -16 13 -17 15 -2 10 9 -4 17 -2 17 3 0
9 -14 14 -32 11 -10 -1 -10 16 0 22 4 2 1 2 -7 0 -7 -2 -24 7 -37 19 -39 38
-60 54 -77 61 -10 4 -14 12 -11 22 4 10 0 15 -15 15 -15 0 -21 6 -21 23 0 18
-2 19 -10 7 -8 -12 -10 -11 -10 7 0 12 -5 25 -12 29 -7 5 -8 2 -3 -7 4 -8 -1
-5 -12 6 -11 11 -18 24 -15 29 3 5 -2 7 -11 3 -19 -7 -35 11 -32 36 3 14 0 16
-10 7 -11 -9 -17 -5 -30 19 -8 17 -18 31 -21 31 -3 0 -2 -5 2 -12 4 -7 3 -8
-5 -4 -9 6 -9 11 -1 21 10 11 8 13 -9 10 -12 -2 -19 -1 -17 4 3 4 -4 13 -14
21 -10 8 -17 17 -14 22 3 4 -2 8 -10 8 -15 0 -15 6 -7 49 1 2 9 -3 18 -10 12
-10 14 -10 9 -1 -4 7 -1 15 8 18 9 3 14 10 11 15 -3 4 4 6 16 4 12 -2 19 -2
16 2 -9 9 21 34 42 36 11 0 17 5 15 9 -3 5 3 11 13 15 18 6 28 14 76 58 16 15
32 23 40 19 6 -4 9 -3 4 1 -10 12 32 55 54 55 10 0 20 9 24 19 4 12 12 18 21
14 9 -3 14 1 14 12 0 10 5 15 14 12 8 -3 13 1 12 11 -1 11 6 16 17 15 10 0 16
1 13 4 -3 3 -1 14 5 25 8 15 14 17 24 8 11 -9 12 -7 9 7 -4 14 6 26 33 43 20
14 43 36 50 50 7 14 17 24 23 23 5 -2 10 4 10 12 0 8 12 22 28 30 16 10 19 14
7 11 -20 -6 -20 -6 -1 9 11 8 24 15 29 15 4 0 6 4 3 9 -3 5 5 16 19 25 14 9
25 23 25 32 0 9 5 12 12 8 6 -4 8 -3 4 4 -3 6 11 28 31 49 21 20 29 31 18 23
-20 -15 -20 -15 0 10 11 14 31 35 45 48 14 13 18 20 10 16 -13 -7 -13 -5 -1 9
7 9 17 14 22 11 5 -3 6 2 3 10 -4 9 1 18 10 22 9 3 13 10 10 15 -3 5 1 9 9 9
8 0 18 7 21 16 6 15 4 15 -11 3 -16 -13 -17 -12 -4 4 8 10 19 16 26 13 6 -2
12 2 12 10 0 7 -5 10 -11 7 -11 -7 6 17 36 51 10 10 15 23 12 28 -3 4 -1 8 4
8 5 0 15 13 22 30 7 16 16 27 21 24 5 -3 6 1 3 9 -3 9 4 21 16 30 15 11 18 16
8 20 -9 4 -8 6 4 6 9 1 20 6 24 13 4 7 3 8 -4 4 -7 -4 -12 -2 -12 3 0 6 5 11
10 11 6 0 10 7 10 15 0 8 5 15 11 15 5 0 8 4 5 9 -3 5 1 12 10 15 9 3 14 12
11 19 -2 6 3 18 12 25 9 8 10 10 3 7 -11 -6 -12 -3 -3 14 7 11 16 21 20 21 5
0 8 8 6 18 -1 9 7 25 19 35 11 10 14 16 6 12 -8 -4 -6 1 4 9 15 12 16 16 5 16
-9 0 -10 3 -3 8 10 7 26 38 28 55 1 4 6 11 11 15 6 4 10 13 11 20 2 28 4 33
13 28 5 -4 8 2 6 11 -1 10 2 27 8 38 11 20 13 26 16 46 0 5 6 7 13 3 6 -4 8
-3 4 4 -3 6 -2 13 3 16 5 3 7 16 3 28 -3 12 -1 19 4 15 6 -3 11 4 11 16 1 12
7 23 13 25 5 2 8 8 5 12 -3 5 3 18 14 29 18 18 21 18 33 3 11 -13 11 -15 -2
-8 -9 4 -8 1 3 -7 9 -8 17 -22 17 -31 0 -9 5 -16 11 -16 8 0 8 -4 2 -12 -12
-16 -11 -28 6 -53 10 -16 11 -17 7 -2 -3 11 -2 15 4 12 6 -3 10 -15 10 -25 0
-10 4 -21 8 -24 5 -3 9 -49 10 -103 0 -54 2 -100 3 -103 1 -3 0 -9 -1 -15 -1
-5 -2 -31 -1 -57 0 -26 -4 -50 -9 -53 -5 -3 -7 -12 -4 -19 3 -7 -2 -20 -10
-29 -11 -11 -12 -17 -4 -19 8 -3 5 -14 -10 -35 -16 -23 -19 -34 -11 -39 9 -5
8 -10 -3 -18 -10 -7 -14 -28 -14 -63 1 -59 8 -70 27 -46 9 11 10 14 2 9 -7 -4
-13 -2 -13 3 0 6 9 11 20 11 11 0 20 5 20 11 0 6 7 9 14 6 10 -4 13 -1 9 9 -3
9 1 14 13 15 11 0 14 3 7 6 -8 3 -4 12 12 27 14 13 22 26 18 29 -3 4 -1 7 6 7
7 0 10 4 6 9 -3 6 0 13 7 18 21 13 55 58 38 49 -11 -6 -11 -4 1 6 9 7 16 17
16 21 2 28 13 48 24 41 8 -4 10 -3 5 5 -9 14 14 82 26 75 4 -3 5 2 2 10 -3 9
-1 16 6 16 6 0 8 5 5 10 -3 6 -1 10 5 10 6 0 9 4 6 9 -3 5 1 27 9 50 8 23 12
41 8 41 -3 0 0 7 7 15 7 8 9 15 5 15 -4 0 -3 6 3 13 6 6 11 17 12 22 4 26 15
10 11 -17 0 -4 6 -5 14 -1 12 4 13 8 4 20 -10 11 -9 13 2 11 8 -2 17 -7 21
-13 5 -6 8 -6 8 2 0 6 -5 15 -10 18 -6 4 -8 11 -4 16 3 5 9 7 14 4 5 -3 5 8 0
25 -5 16 -6 30 -2 30 4 0 7 26 6 58 0 32 5 65 12 76 10 14 10 23 2 33 -6 7 -6
13 -1 13 5 0 9 10 7 22 -1 13 -3 23 -4 23 -7 0 -3 115 5 115 6 0 3 5 -6 10
-12 7 -17 24 -17 62 0 29 -1 58 -2 63 -1 6 -1 22 0 38 1 17 -4 27 -12 27 -10
0 -9 3 2 10 9 6 10 10 3 10 -7 0 -11 12 -9 28 1 15 -4 37 -12 50 -12 18 -12
22 -1 22 10 0 11 2 2 8 -6 4 -13 16 -15 27 -1 11 -6 22 -10 25 -4 3 -8 21 -9
40 -2 19 -9 43 -17 52 -8 10 -12 24 -8 33 3 9 2 14 -3 11 -5 -3 -11 3 -14 14
-3 10 0 21 7 24 6 2 4 5 -5 5 -16 1 -29 19 -35 50 -1 8 -8 17 -14 21 -9 6 -9
9 1 13 10 4 8 6 -4 6 -10 1 -16 5 -13 9 3 5 -3 18 -12 28 -18 19 -27 100 -12
109 4 3 6 18 4 35 -3 23 0 29 9 24 9 -6 9 -5 0 8 -7 8 -11 17 -8 20 2 2 6 35
9 72 2 37 6 70 9 73 4 3 2 14 -4 24 -6 13 -6 19 1 19 5 0 9 3 9 8 -1 4 -1 12
1 17 6 36 -3 292 -11 308 -9 15 -8 18 3 12 10 -6 10 -5 1 5 -9 9 -9 19 -2 33
6 11 7 17 1 13 -5 -3 -10 24 -12 67 -1 39 -2 78 -3 85 0 6 -4 12 -8 12 -8 0
-6 26 3 35 3 4 0 18 -7 33 -7 15 -16 50 -19 77 -10 75 -25 149 -42 210 -4 13
-3 17 4 10 15 -15 92 -196 94 -221 1 -12 6 -20 10 -18 7 5 10 -4 7 -22 0 -4 4
-10 10 -13 6 -4 12 -19 13 -34 1 -15 6 -27 10 -27 4 0 8 -9 8 -21 0 -11 4 -17
10 -14 5 3 7 0 4 -8 -3 -8 -1 -18 5 -21 6 -4 7 -14 4 -23 -3 -9 0 -21 8 -27 8
-6 15 -20 15 -31 1 -11 5 -28 9 -39 5 -12 3 -21 -6 -27 -12 -8 -11 -9 1 -7 8
2 17 -2 18 -7 2 -6 8 -15 14 -22 5 -7 7 -17 3 -23 -3 -5 -2 -10 3 -10 5 0 9
-7 10 -15 1 -8 3 -22 4 -30 1 -8 4 -15 8 -15 4 0 7 -7 8 -15 1 -8 3 -22 4 -30
1 -8 6 -15 11 -15 5 0 7 -9 4 -20 -3 -11 -1 -22 3 -25 9 -6 25 -83 21 -103 -1
-6 3 -12 9 -12 5 0 10 -13 10 -28 0 -15 6 -34 13 -41 6 -8 7 -11 1 -8 -6 3
-11 0 -11 -8 0 -8 5 -13 10 -12 6 1 11 -9 13 -23 2 -14 8 -45 14 -70 7 -25 14
-56 17 -70 6 -31 7 -37 18 -80 4 -19 9 -46 11 -60 1 -14 3 -25 4 -25 1 0 4
-16 7 -35 2 -19 9 -40 14 -47 7 -7 6 -14 -1 -18 -6 -4 -7 -13 -1 -23 5 -9 9
-28 10 -42 1 -14 2 -42 4 -62 1 -21 4 -38 8 -38 3 0 7 -17 8 -37 1 -21 4 -56
6 -78 2 -22 4 -83 4 -137 1 -79 4 -96 16 -94 22 3 24 8 26 69 1 31 6 57 12 57
5 0 4 6 -2 14 -7 8 -8 16 -4 19 4 3 8 32 8 65 0 33 3 58 8 55 4 -2 7 0 7 6 0
5 -4 12 -9 15 -4 3 -5 24 -1 46 4 23 3 40 -2 40 -5 0 -6 5 -2 11 10 16 12 89
2 89 -4 0 -3 11 2 25 5 14 6 25 2 25 -4 0 -8 28 -10 63 -2 73 -10 192 -12 192
-2 0 -11 96 -13 138 -1 15 -5 27 -8 27 -3 0 -6 6 -6 13 -1 25 -13 113 -18 137
-3 14 -7 44 -10 67 -2 24 -9 52 -15 63 -8 15 -8 20 1 20 8 0 8 5 -2 16 -13 16
-14 20 -20 81 -2 18 -5 30 -8 27 -3 -2 -21 62 -42 143 -36 145 -157 522 -185
575 -8 15 -14 30 -14 33 0 19 26 -19 101 -147 45 -79 86 -145 89 -148 25 -21
181 -373 182 -412 1 -16 5 -28 10 -28 4 0 8 -8 8 -18 0 -10 4 -22 9 -27 5 -6
11 -23 14 -40 2 -16 9 -43 16 -60 22 -51 50 -153 43 -159 -3 -3 -1 -6 5 -6 6
0 17 -24 23 -52 7 -29 17 -59 22 -65 6 -7 8 -21 6 -31 -3 -12 1 -18 12 -18 9
0 17 5 18 11 1 5 3 21 5 35 1 14 7 31 11 39 6 10 5 12 -3 7 -9 -6 -11 10 -7
66 3 40 6 163 6 272 0 151 -3 202 -12 208 -10 6 -9 8 2 8 10 0 11 3 4 8 -7 4
-14 41 -18 82 -11 151 -18 195 -27 198 -6 3 -6 9 1 17 8 9 8 15 0 20 -5 3 -10
24 -10 46 0 24 -5 39 -12 39 -9 0 -8 4 2 10 10 6 11 10 3 10 -8 0 -13 13 -13
30 0 17 -4 30 -10 30 -5 0 -10 5 -10 11 0 5 6 7 13 3 8 -5 8 -2 -2 9 -7 9 -10
17 -6 17 4 0 3 6 -2 13 -6 6 -9 22 -8 34 1 12 -2 20 -7 17 -4 -3 -8 4 -8 15 0
12 -6 21 -12 21 -10 0 -9 3 1 9 9 6 10 10 2 12 -7 3 -13 14 -14 27 0 12 -5 22
-9 22 -4 0 -5 7 -2 15 4 10 0 15 -11 15 -15 0 -16 2 -4 17 12 14 12 16 0 8
-11 -6 -13 -4 -8 8 4 11 1 17 -8 17 -9 0 -12 8 -9 25 2 15 0 25 -7 25 -6 0 -8
7 -5 16 5 13 4 14 -7 6 -11 -9 -13 -7 -12 11 1 12 -7 30 -18 39 -11 10 -15 18
-9 18 7 0 12 5 12 11 0 5 -4 8 -9 5 -5 -4 -15 7 -23 24 -7 16 -17 30 -21 30
-5 0 -5 5 -2 10 3 6 1 10 -5 10 -6 0 -9 3 -7 8 7 10 -19 32 -29 24 -5 -4 -3 0
4 10 11 14 9 19 -10 32 -13 9 -17 16 -9 16 9 0 6 7 -8 19 -16 14 -18 21 -9 24
8 3 5 6 -6 6 -11 1 -17 4 -13 7 3 4 -1 13 -9 21 -8 8 -12 18 -9 23 3 5 0 12
-6 16 -8 5 -9 3 -4 -7 5 -8 -1 -5 -13 5 -23 20 -30 32 -12 21 6 -3 10 -1 10 4
0 6 -7 11 -17 11 -9 0 -14 3 -10 6 3 4 -1 13 -9 21 -8 8 -12 18 -9 23 3 4 -2
10 -10 14 -8 3 -15 11 -15 17 0 6 -10 20 -22 30 -14 13 -17 19 -7 20 8 0 4 4
-8 9 -13 5 -23 15 -23 22 0 8 -9 20 -20 28 -14 10 -16 16 -7 22 8 5 6 8 -7 8
-11 0 -16 5 -13 14 4 10 0 12 -16 8 -19 -5 -20 -3 -10 10 11 12 9 17 -12 26
-17 8 -23 16 -18 28 5 13 3 15 -7 9 -10 -6 -12 -4 -6 10 6 16 4 16 -11 4 -11
-9 -14 -10 -9 -1 4 7 2 12 -5 12 -7 0 -9 3 -6 6 4 4 -2 15 -14 25 -14 12 -16
18 -7 22 8 3 6 6 -6 6 -11 1 -16 6 -13 15 4 10 -1 13 -16 10 -12 -2 -16 -1 -9
2 10 4 9 10 -5 22 -24 22 -25 48 -2 48 10 0 15 -5 11 -11 -4 -6 1 -2 10 8 10
11 18 16 18 12 0 -4 6 -2 14 4 10 8 16 9 21 1 9 -15 27 -1 20 17 -5 14 -3 14
12 2 11 -9 14 -10 9 -1 -4 7 -1 12 9 12 9 0 13 5 10 10 -3 6 -2 10 4 10 6 0 8
7 5 15 -6 14 -8 13 -21 -2 -8 -10 -12 -13 -9 -6 7 13 -33 45 -46 37 -4 -3 -8
0 -8 6 0 6 -4 8 -10 5 -5 -3 -10 1 -10 9 0 9 -5 16 -11 16 -5 0 -7 -4 -4 -10
13 -21 -6 -8 -47 32 -24 22 -37 38 -31 34 9 -5 11 -2 7 8 -3 9 -11 13 -17 9
-6 -4 -8 0 -4 11 4 10 3 15 -3 11 -6 -3 -10 -1 -10 5 0 6 -4 9 -8 6 -5 -3 -9
1 -9 9 0 8 5 12 11 9 6 -3 2 2 -8 10 -15 12 -16 16 -5 16 12 0 12 2 -1 10 -8
5 -11 10 -6 10 5 0 2 8 -5 17 -12 15 -12 16 1 8 12 -7 13 -6 3 6 -6 8 -13 28
-15 44 -1 17 -7 35 -13 41 -13 13 -8 407 5 399 5 -3 7 4 5 15 -2 11 -1 20 3
20 4 0 6 20 5 45 0 28 3 45 10 45 7 0 5 5 -3 10 -13 8 -13 10 1 10 11 0 15 9
14 30 -1 16 2 27 7 24 4 -3 8 9 8 26 0 17 3 29 8 27 4 -3 8 13 9 36 2 22 9 44
15 49 10 6 10 10 -2 18 -10 6 -11 10 -2 10 7 0 12 13 12 31 0 16 4 28 9 25 5
-3 8 12 7 34 0 22 2 40 6 40 4 0 5 9 3 21 -3 14 0 19 9 16 9 -4 11 3 8 24 -3
20 0 29 9 29 11 0 11 2 -1 10 -12 8 -12 12 -2 18 14 9 13 47 -2 71 -7 10 -6
12 4 6 10 -6 12 -2 8 18 -4 18 -1 24 9 20 10 -4 13 7 13 46 0 28 0 54 -1 57 0
4 5 11 13 15 10 7 10 9 0 9 -7 0 -10 5 -7 10 4 6 10 8 15 5 4 -3 6 4 3 16 -4
12 0 25 8 30 10 6 10 9 2 9 -7 0 -10 7 -7 15 4 8 9 13 13 11 8 -5 7 36 -1 50
-8 13 17 46 28 36 4 -4 2 1 -5 10 -7 9 -10 22 -6 28 3 5 0 10 -7 10 -9 0 -9 3
-2 8 13 9 13 72 -1 72 -5 0 -3 5 5 10 8 5 11 10 6 10 -5 0 -1 10 10 22 15 19
16 20 2 9 -20 -15 -23 -9 -7 20 5 11 13 18 17 15 4 -2 6 19 5 47 0 29 3 58 9
64 6 7 8 24 6 38 -3 14 -2 28 2 30 5 3 7 16 6 30 -2 13 1 22 6 19 5 -4 9 2 8
12 -1 11 -1 22 0 27 1 4 4 16 5 27 1 11 4 21 5 23 1 1 3 14 4 29 2 18 -1 25
-8 21 -6 -4 -5 1 3 10 11 14 11 17 0 17 -9 0 -10 3 -3 8 14 9 13 62 0 62 -6 0
-5 4 3 9 9 6 12 20 9 40 -2 17 -1 31 3 31 4 0 6 9 4 20 -2 11 0 22 6 25 5 4 9
152 8 366 0 214 -4 357 -10 353 -5 -3 -9 13 -9 35 0 24 5 41 11 41 8 0 8 4 0
14 -9 10 -8 16 4 26 13 11 13 15 3 21 -11 7 -11 9 0 9 8 0 10 5 6 12 -4 6 -6
36 -5 65 2 33 -2 53 -8 53 -6 0 -11 5 -11 11 0 5 5 7 11 3 7 -4 6 3 -2 17 -7
13 -11 46 -10 72 1 26 -3 55 -9 63 -10 11 -10 14 -1 14 8 0 6 7 -5 17 -9 9
-13 18 -8 20 14 5 5 143 -9 143 -7 0 -6 4 3 10 10 6 11 10 3 10 -9 0 -13 21
-13 70 0 40 -4 70 -10 70 -5 0 -10 5 -10 11 0 5 5 7 11 3 6 -3 3 5 -6 20 -11
17 -13 26 -6 26 7 0 10 4 7 8 -3 5 -6 27 -7 50 -2 23 -7 42 -12 42 -5 0 -7 22
-5 49 2 29 -1 49 -7 48 -5 -1 -9 4 -7 12 1 7 -2 19 -8 26 -8 9 -8 15 0 20 6 3
7 12 3 18 -4 6 -6 28 -4 49 2 26 -2 38 -11 38 -10 0 -9 3 2 10 10 6 11 10 3
10 -8 0 -13 15 -13 41 0 27 -4 38 -11 33 -7 -4 -7 1 1 16 8 15 8 20 1 16 -7
-5 -11 6 -11 33 0 22 -5 42 -12 44 -9 4 -9 6 1 6 11 1 10 5 -5 16 -10 8 -14
15 -8 15 14 0 5 60 -10 60 -6 0 -4 5 4 10 10 6 11 10 3 10 -8 0 -13 13 -13 30
0 17 -4 30 -10 30 -5 0 -10 5 -10 11 0 5 6 7 13 3 10 -6 10 -4 0 7 -7 7 -13
23 -13 36 0 13 -6 23 -12 23 -9 0 -8 4 2 10 12 7 12 10 1 10 -7 0 -11 6 -8 15
4 8 2 17 -3 20 -4 3 -7 16 -6 30 2 13 -1 22 -5 19 -8 -4 -13 44 -12 93 1 7 -3
10 -8 7 -5 -3 -9 4 -9 15 0 12 -4 21 -10 21 -5 0 -10 5 -10 11 0 5 6 7 13 3
10 -6 10 -4 0 7 -7 7 -13 23 -13 36 0 13 -6 23 -12 23 -9 0 -8 4 2 10 9 6 10
10 3 10 -6 0 -10 9 -8 20 2 11 1 19 -3 19 -20 -3 -25 2 -12 11 10 6 11 10 3
10 -7 0 -13 10 -13 23 0 13 -6 29 -12 36 -10 11 -10 13 0 7 6 -4 12 -3 12 3 0
5 -4 11 -10 13 -5 2 -11 15 -12 31 -1 15 -6 27 -10 27 -4 0 -8 7 -8 15 0 8 -6
15 -12 15 -8 0 -9 3 -3 8 15 11 16 32 1 26 -9 -4 -13 2 -11 20 2 14 0 26 -5
26 -5 0 -7 8 -5 18 1 9 -4 28 -12 41 -8 13 -10 20 -4 17 6 -4 11 -2 11 3 0 6
-4 11 -10 11 -5 0 -10 6 -10 13 0 18 -24 67 -32 67 -5 0 -8 5 -8 11 0 5 5 7
12 3 6 -4 4 3 -5 15 -8 13 -13 30 -10 39 5 11 3 13 -7 7 -10 -6 -12 -4 -7 8 4
10 0 20 -11 26 -14 8 -14 10 -2 11 13 0 13 1 0 10 -13 9 -13 10 0 10 12 1 12
3 -2 11 -11 6 -15 16 -11 26 4 11 3 14 -6 9 -8 -5 -12 -3 -10 5 3 29 -1 40
-13 33 -8 -5 -7 0 2 11 8 10 10 16 4 12 -14 -8 -22 9 -19 40 1 12 -1 20 -4 18
-4 -2 -11 8 -18 21 -6 13 -7 22 -2 18 14 -8 11 6 -5 21 -7 8 -17 11 -22 7 -5
-4 -2 1 5 11 9 11 10 17 2 17 -6 0 -11 8 -11 18 0 10 -6 24 -12 31 -10 11 -10
12 -1 7 9 -5 11 -2 7 8 -3 9 -10 14 -16 13 -6 -1 -12 7 -14 18 -1 11 -8 21
-13 23 -6 2 -11 8 -11 13 0 6 6 7 13 3 9 -6 9 -5 0 7 -6 8 -13 23 -15 34 -1
11 -9 26 -16 33 -7 8 -9 19 -5 25 5 9 3 9 -8 0 -12 -10 -15 -7 -14 23 1 28 -2
34 -19 34 -17 0 -18 2 -6 10 8 5 10 10 5 10 -6 0 -11 8 -12 18 -2 30 -8 47
-17 49 -17 3 -25 28 -13 42 9 12 9 13 0 7 -8 -4 -13 -1 -13 9 0 10 -5 13 -12
9 -8 -5 -7 0 2 11 14 17 13 18 -3 12 -11 -4 -16 -3 -12 3 3 6 1 10 -6 10 -8 0
-7 5 2 17 10 11 10 14 2 9 -8 -4 -13 -1 -13 9 0 9 -4 13 -10 10 -5 -3 -10 -2
-10 4 0 5 6 12 13 14 6 3 1 6 -13 6 -20 1 -22 3 -10 11 10 6 11 10 3 10 -7 0
-13 9 -13 21 0 12 -4 17 -11 14 -6 -4 -9 0 -7 11 2 12 -2 18 -11 16 -12 -3
-12 0 -2 12 10 11 8 17 -6 28 -10 7 -19 20 -21 28 -2 8 -9 18 -15 22 -9 6 -8
8 2 8 9 0 7 6 -8 19 -12 10 -19 25 -16 32 3 8 -4 18 -17 24 -12 6 -23 17 -26
25 -3 13 -2 13 7 0 8 -11 11 -11 11 -2 0 7 -10 17 -22 22 -13 5 -17 9 -10 9
18 1 15 21 -4 21 -9 0 -14 7 -12 18 2 10 -7 25 -22 36 -14 10 -17 16 -7 12 9
-3 17 -1 17 4 0 6 -7 10 -16 10 -8 0 -12 5 -9 10 3 6 1 10 -4 10 -6 0 -11 9
-11 20 0 11 -6 20 -12 20 -10 0 -10 2 -1 8 9 6 7 12 -7 22 -21 15 -28 36 -9
24 8 -4 7 0 -1 15 -6 13 -16 19 -23 14 -7 -4 -5 2 3 12 11 14 12 19 3 22 -7 3
-13 13 -13 24 0 10 -6 19 -12 19 -9 0 -8 4 2 10 12 7 12 10 1 10 -8 0 -11 6
-7 15 4 10 -2 19 -17 25 -20 8 -21 9 -2 10 19 1 19 1 2 11 -9 6 -15 14 -12 20
4 5 0 16 -9 24 -8 8 -13 24 -11 35 2 11 -4 25 -13 32 -9 7 -18 24 -20 38 -1
13 -8 28 -15 32 -9 6 -8 8 3 8 11 1 9 6 -8 19 -15 13 -18 21 -10 24 10 4 10 6
0 6 -7 1 -10 6 -7 11 4 6 1 9 -6 8 -6 -2 -14 3 -16 10 -3 6 0 12 7 12 6 0 8 5
5 10 -4 6 -10 8 -15 5 -5 -3 -12 0 -16 6 -3 6 0 15 7 20 10 6 11 9 2 9 -7 0
-13 7 -13 15 0 8 -8 15 -17 16 -16 0 -16 1 1 8 17 7 18 8 3 14 -11 4 -14 12
-10 23 4 12 3 15 -5 10 -8 -5 -12 1 -12 16 0 13 -9 30 -20 38 -20 14 -29 37
-10 25 6 -3 7 1 4 9 -3 9 -10 14 -14 11 -5 -3 -11 -1 -15 5 -3 5 0 10 7 10 8
1 6 7 -7 18 -19 17 -27 34 -28 60 0 6 -6 12 -13 12 -6 0 -15 7 -18 16 -3 8 -2
12 4 9 6 -3 10 -2 10 3 0 6 -7 12 -15 16 -8 3 -12 12 -9 20 3 8 -4 21 -16 29
-15 11 -18 16 -8 20 9 4 8 6 -4 6 -11 1 -16 8 -13 20 2 11 -4 26 -13 33 -10 8
-13 9 -9 1 4 -6 4 -14 -1 -17 -7 -4 -12 16 -15 61 0 7 -4 10 -9 7 -4 -3 -8 0
-8 6 0 6 -4 9 -8 6 -5 -3 -9 1 -9 9 0 8 4 12 9 9 4 -3 8 0 8 5 0 6 -9 11 -20
11 -18 0 -19 3 -10 20 9 16 8 19 -7 13 -12 -5 -15 -2 -10 10 4 11 -1 18 -14
22 -16 6 -25 30 -20 58 1 5 -2 6 -6 4 -5 -3 -14 1 -21 9 -10 11 -10 14 0 14 7
1 2 7 -12 15 -14 8 -19 14 -11 15 8 0 2 11 -15 28 -16 15 -25 24 -20 20 27
-21 24 -4 -3 21 -21 19 -27 31 -19 34 8 4 7 6 -4 6 -9 1 -20 6 -24 13 -5 7 -3
8 6 3 9 -5 11 -4 6 3 -4 7 -15 12 -24 12 -14 0 -14 2 -3 9 11 7 9 10 -8 16
-11 3 -21 10 -21 15 0 5 8 7 18 3 9 -3 0 7 -21 21 -21 15 -35 31 -32 36 3 4
-1 15 -9 23 -8 8 -12 18 -8 22 4 5 -1 5 -11 2 -15 -6 -16 -4 -6 14 6 12 7 19
2 16 -4 -3 -13 1 -20 8 -10 11 -10 15 0 18 7 3 4 6 -6 6 -10 1 -22 12 -27 26
-5 14 -15 25 -21 25 -6 0 -8 7 -5 16 5 12 1 14 -16 8 -20 -6 -21 -5 -10 8 11
13 8 20 -18 41 -30 26 -41 44 -17 31 7 -4 9 -3 4 2 -5 5 -14 9 -20 9 -7 1 -11
7 -9 14 1 7 -7 15 -18 18 -13 3 -19 11 -16 19 3 8 0 14 -7 14 -20 0 -48 38
-34 44 7 4 2 4 -11 2 -20 -4 -21 -2 -10 12 11 13 11 15 -4 9 -13 -4 -15 -2
-11 10 4 11 2 14 -5 9 -7 -4 -12 -1 -12 8 0 9 -4 16 -10 16 -5 0 -10 5 -10 11
0 5 5 7 12 3 7 -4 8 -3 4 4 -4 6 -13 9 -21 5 -8 -3 -15 -1 -15 5 0 6 5 12 12
14 7 3 5 7 -6 11 -10 4 -15 3 -11 -3 3 -6 1 -10 -4 -10 -6 0 -11 9 -11 20 0
11 -5 20 -11 20 -5 0 -7 -5 -3 -12 4 -7 3 -8 -5 -4 -6 4 -9 12 -6 17 4 5 1 9
-4 9 -6 0 -11 7 -11 15 0 8 -7 15 -16 15 -8 0 -13 4 -9 9 3 5 -3 16 -13 23
-10 7 -21 21 -25 31 -3 9 -14 17 -24 17 -15 0 -16 2 -3 10 13 8 12 10 -3 10
-10 0 -15 5 -12 10 3 6 2 10 -4 10 -5 0 -12 -6 -15 -12 -3 -7 -3 -1 -1 15 2
15 0 25 -6 22 -8 -6 -13 9 -10 29 1 5 -5 4 -13 -3 -12 -10 -14 -9 -9 11 4 18
3 20 -6 8 -9 -12 -11 -10 -11 10 0 20 -2 22 -10 10 -8 -12 -10 -11 -10 5 0 23
-18 45 -34 45 -6 0 -3 -5 7 -11 9 -5 17 -14 17 -19 0 -6 -9 -2 -19 7 -11 9
-18 20 -15 25 3 4 -6 12 -19 17 -13 5 -31 21 -41 35 -10 16 -22 24 -29 19 -8
-5 -8 -2 1 9 11 14 10 17 -7 23 -10 3 -22 12 -25 20 -3 8 -12 15 -20 15 -8 0
-18 4 -21 10 -3 6 1 7 12 4 10 -3 2 4 -17 16 -19 12 -27 19 -17 16 11 -3 15
-2 12 4 -3 6 -15 10 -27 10 -17 0 -18 3 -8 15 10 12 8 14 -8 10 -12 -2 -23 3
-26 11 -3 9 -10 12 -16 9 -6 -4 -7 1 -3 12 6 16 5 16 -10 4 -15 -12 -17 -12
-11 3 5 13 2 17 -10 14 -10 -2 -24 9 -34 27 -19 34 -33 46 -44 39 -4 -3 -8 0
-8 6 0 6 -5 8 -12 4 -6 -4 -8 -3 -5 3 7 11 -28 45 -37 36 -3 -4 -6 0 -6 7 0 7
-3 11 -6 7 -3 -3 -22 10 -41 28 -20 19 -40 32 -45 29 -4 -3 -8 3 -8 12 0 10
-3 14 -6 11 -4 -4 -15 3 -25 15 -11 11 -19 18 -19 13 0 -4 -8 1 -17 12 -10 10
-14 12 -9 3 5 -8 -4 0 -22 18 -17 17 -35 32 -41 32 -5 0 -22 11 -37 25 -14 13
-30 22 -34 20 -4 -3 -11 2 -14 11 -3 8 -10 13 -15 10 -5 -3 -12 1 -15 10 -3 8
-10 12 -16 9 -5 -3 -10 -1 -10 4 0 6 -7 11 -16 11 -9 0 -12 5 -8 12 5 8 0 9
-14 6 -12 -4 -20 -2 -16 3 3 5 1 9 -5 9 -5 0 -16 6 -23 13 -7 6 -29 21 -49 31
-34 18 -36 21 -29 52 4 18 5 35 2 38 -3 4 1 6 9 6 11 0 11 2 -1 10 -8 5 -10
10 -4 10 6 0 12 12 12 28 2 26 9 67 12 67 2 0 6 21 16 80 11 59 13 563 3 597
-4 16 -9 58 -10 94 -1 35 -5 64 -9 64 -3 0 -7 17 -8 38 -3 59 -23 132 -35 132
-7 0 -5 5 3 10 12 7 12 10 1 10 -8 0 -11 6 -7 16 3 8 2 12 -4 9 -6 -3 -10 0
-10 8 0 8 -8 21 -17 28 -17 13 -17 13 -3 -6 l15 -20 -24 20 c-19 17 -38 20
-112 20 -49 0 -89 -3 -89 -6 0 -3 -10 -5 -22 -5 -13 1 -29 -2 -35 -7 -9 -6
-13 -5 -13 2 0 7 -5 9 -10 6 -12 -7 -75 -18 -102 -17 -10 1 -18 -3 -18 -8 0
-5 -6 -7 -14 -4 -8 3 -41 0 -73 -7 -32 -7 -65 -12 -75 -10 -9 1 -19 -3 -23 -9
-3 -6 -10 -8 -14 -5 -5 2 -35 -2 -67 -11 -66 -18 -67 -18 -109 -28 -16 -4 -37
-10 -45 -13 -8 -4 -21 -5 -27 -4 -7 1 -13 -4 -13 -10 0 -7 -3 -9 -7 -6 -3 4
-13 1 -21 -6 -13 -10 -14 -9 -8 1 10 17 -55 -15 -66 -32 -5 -8 -8 -7 -8 2 0
10 -5 10 -21 2 -11 -7 -27 -9 -35 -6 -10 4 -12 2 -8 -6 5 -8 2 -9 -9 -5 -10 3
-17 2 -17 -3 0 -5 -10 -10 -22 -12 -13 -2 -22 -9 -20 -17 3 -12 0 -12 -12 -1
-15 12 -21 7 -17 -13 1 -5 -4 -7 -11 -5 -7 3 -17 -1 -23 -9 -14 -19 -52 -24
-59 -7 -3 7 -11 11 -18 9 -9 -4 -14 5 -15 27 -4 51 -6 58 -16 58 -5 0 -3 8 4
17 10 11 10 14 2 9 -9 -5 -13 0 -13 13 0 12 -6 21 -12 21 -9 0 -8 4 2 10 10 6
11 10 3 10 -7 0 -13 9 -13 19 0 11 -6 22 -12 24 -10 4 -10 6 -1 6 7 1 1 12
-13 26 -21 21 -23 29 -14 40 10 12 9 16 -5 21 -13 5 -14 9 -3 15 10 7 10 9 1
9 -7 0 -13 9 -13 21 0 13 -4 18 -12 13 -6 -4 -8 -3 -5 4 10 15 -3 43 -17 35
-6 -4 -5 1 3 10 11 15 11 17 -2 17 -10 0 -14 8 -13 25 2 13 -1 22 -5 19 -5 -3
-9 4 -9 15 0 12 -4 21 -10 21 -5 0 -10 5 -10 11 0 5 5 7 12 3 7 -4 8 -3 4 4
-4 7 -15 12 -24 12 -14 0 -15 2 -2 10 12 7 11 12 -8 28 -23 20 -30 38 -10 26
7 -4 8 -3 4 4 -4 7 -15 12 -24 12 -14 0 -15 2 -2 10 12 7 10 12 -9 29 -13 12
-19 21 -12 21 9 0 8 5 -3 15 -8 8 -18 24 -21 35 -3 11 -11 20 -17 20 -6 0 -5
7 3 18 7 9 10 14 5 10 -11 -10 -35 14 -29 30 4 8 0 10 -11 6 -9 -4 -16 -3 -15
2 4 24 -2 44 -12 39 -6 -4 -9 0 -7 11 2 12 -2 18 -11 16 -12 -3 -12 0 -1 12
10 13 10 16 -3 16 -10 0 -14 8 -12 25 2 20 0 23 -12 14 -11 -9 -12 -8 -7 5 4
11 1 16 -12 16 -9 0 -14 3 -11 7 4 3 -1 12 -11 20 -9 8 -12 12 -5 9 6 -4 15
-1 19 5 4 8 3 9 -4 5 -7 -4 -12 -3 -12 3 0 5 -11 23 -25 39 -13 16 -21 33 -17
37 4 5 -1 5 -11 2 -11 -4 -16 -3 -12 3 3 6 1 10 -5 10 -6 0 -9 4 -5 9 3 5 -2
16 -11 25 -8 9 -13 20 -9 25 3 5 0 13 -6 17 -8 5 -9 3 -4 -6 5 -8 4 -11 -3 -6
-6 4 -9 13 -5 21 3 9 -1 15 -11 15 -9 0 -16 8 -16 19 0 11 -5 23 -12 27 -7 4
-8 3 -4 -4 5 -8 2 -10 -9 -6 -13 5 -13 9 -3 22 8 9 8 13 2 9 -7 -4 -18 1 -25
10 -10 12 -10 14 -1 9 7 -4 12 -2 12 5 0 6 -8 9 -20 6 -16 -4 -18 -2 -10 13 8
15 6 17 -10 13 -12 -3 -20 0 -20 6 0 7 6 9 13 6 6 -4 2 2 -10 13 -13 11 -23
26 -23 33 0 7 -3 9 -7 6 -7 -8 -39 34 -35 46 1 4 -3 7 -9 7 -5 0 -7 5 -4 10 3
6 -3 10 -14 10 -12 0 -21 4 -21 10 0 5 8 6 17 3 15 -6 16 -5 3 9 -8 9 -23 14
-33 12 -16 -3 -17 -1 -5 13 9 12 9 15 1 9 -9 -5 -13 -1 -13 11 0 15 -2 16 -11
3 -9 -12 -10 -10 -6 8 5 20 3 21 -11 10 -13 -11 -15 -11 -9 4 4 12 -1 21 -16
28 -21 11 -21 11 -3 -4 11 -9 15 -16 9 -16 -6 0 -16 7 -24 16 -10 13 -10 17 2
25 10 8 8 9 -8 4 -22 -6 -28 2 -24 28 1 5 -3 6 -9 2 -6 -3 -8 -11 -5 -16 3 -5
-1 -6 -9 -3 -9 3 -13 10 -10 15 3 5 -1 9 -8 9 -16 0 -78 63 -78 79 0 6 -5 11
-11 11 -6 0 -9 6 -6 13 3 8 0 14 -6 15 -17 1 -70 12 -84 17 -7 2 -15 0 -18 -5
-6 -10 -24 -8 -44 4 -11 7 -13 5 -8 -7 4 -12 1 -15 -16 -12 -22 5 -61 -27 -49
-41 4 -5 -2 -2 -12 6 -14 11 -18 11 -12 2 5 -9 1 -15 -14 -19 -13 -3 -19 -11
-16 -20 4 -10 1 -11 -13 -3 -14 7 -22 5 -32 -8 -13 -16 -13 -16 5 -2 18 14 19
14 6 -7 -10 -16 -18 -19 -26 -12 -8 7 -15 6 -20 -2 -4 -8 -3 -9 4 -5 7 4 12 1
12 -9 0 -10 -7 -15 -17 -13 -10 2 -17 -3 -16 -9 2 -7 -6 -13 -16 -13 -11 0
-23 -5 -26 -10 -4 -6 -11 -7 -17 -4 -7 4 -8 2 -4 -4 4 -6 14 -9 24 -6 21 6
-16 -12 -41 -20 -11 -3 -21 -15 -24 -26 -5 -17 -8 -18 -21 -8 -13 11 -14 11
-7 -1 6 -11 4 -13 -8 -8 -11 4 -14 2 -10 -9 3 -7 10 -14 16 -14 6 0 7 -3 4 -6
-4 -4 -14 -1 -24 7 -11 9 -14 10 -9 2 7 -12 -5 -18 -27 -14 -4 1 -2 -9 4 -21
12 -22 11 -22 -6 -8 -11 9 -16 10 -11 3 5 -9 1 -13 -11 -13 -15 0 -16 -2 -3
-10 12 -8 12 -10 -5 -10 -11 0 -31 -7 -45 -16 l-25 -15 25 6 25 5 -25 -11
c-50 -22 -55 -26 -58 -48 -2 -14 -9 -21 -17 -17 -8 3 -17 0 -21 -6 -5 -7 -2
-8 7 -4 8 4 5 0 -6 -9 -11 -9 -19 -21 -17 -26 1 -6 -6 -6 -18 1 -16 8 -18 8
-14 -4 3 -8 0 -17 -7 -22 -8 -5 -10 -3 -4 7 7 11 6 12 -7 2 -8 -7 -18 -9 -22
-5 -4 4 -7 2 -6 -3 5 -22 -1 -27 -17 -14 -15 13 -15 12 -3 -11 12 -23 12 -24
-3 -11 -10 7 -17 9 -17 4 0 -5 -7 -10 -15 -10 -8 0 -15 4 -15 8 0 4 -11 10
-25 13 -14 4 -25 11 -25 16 0 6 -5 10 -11 10 -5 0 -7 -6 -3 -12 4 -7 -2 -5
-13 5 -11 9 -23 14 -28 10 -4 -5 -5 -3 -1 4 3 6 2 14 -4 18 -5 3 -10 1 -10 -6
0 -7 -9 -3 -20 9 -21 23 -36 30 -25 12 3 -5 1 -10 -4 -10 -6 0 -11 7 -11 15 0
9 -10 15 -26 15 -16 0 -23 4 -18 12 5 7 0 9 -14 6 -13 -4 -20 -2 -19 6 1 6 -6
10 -15 10 -10 -1 -18 2 -18 7 0 5 -7 9 -15 9 -8 0 -15 5 -15 10 0 6 -3 9 -7 8
-5 -1 -24 4 -43 11 -19 8 -38 13 -42 12 -5 0 -8 3 -8 8 0 5 -9 11 -20 14 -13
3 -18 1 -13 -6 3 -7 -3 -4 -14 6 -11 10 -29 20 -39 22 -11 2 -39 12 -64 21
-25 9 -56 18 -70 21 -13 2 -27 8 -30 12 -7 10 -91 34 -97 27 -3 -3 -12 1 -19
9 -8 8 -20 12 -28 9 -7 -3 -19 2 -26 10 -7 9 -16 13 -22 10 -5 -3 -15 0 -23 6
-8 7 -15 10 -15 6 0 -3 -16 0 -35 9 -25 10 -33 11 -28 2 4 -7 -2 -6 -17 3 -14
8 -36 15 -50 15 -14 0 -31 5 -37 12 -7 6 -21 10 -30 9 -10 -2 -21 2 -25 8 -5
7 -8 6 -8 -4 0 -11 -3 -12 -8 -3 -4 6 -19 14 -32 17 -14 3 -35 7 -47 10 -113
28 -142 33 -148 28 -3 -4 -9 -1 -13 5 -4 6 -27 14 -52 17 -65 9 -102 16 -112
22 -4 3 -8 1 -8 -3 0 -5 -9 -9 -19 -9 -11 0 -18 4 -15 7 2 4 0 10 -6 14 -5 3
-10 1 -10 -6 0 -8 -4 -8 -15 1 -8 7 -28 10 -45 8 -16 -3 -30 -1 -30 3 0 4 -7
10 -16 13 -9 4 -13 2 -8 -5 4 -7 -1 -7 -16 1 -12 6 -24 9 -27 6 -4 -3 -12 -1
-20 5 -7 6 -13 7 -13 2 0 -14 -40 -9 -50 6 -6 10 -10 9 -19 -5 -10 -18 -10
-18 -11 -1 0 15 -6 18 -34 14 -19 -3 -38 -2 -41 1 -6 6 -12 7 -85 15 -25 3
-72 9 -105 13 -33 4 -90 8 -127 9 -38 0 -68 3 -68 6 0 3 -6 6 -12 6 -32 2
-256 15 -283 17 -17 1 -35 4 -40 7 -6 3 -79 5 -162 4 -84 0 -153 3 -153 6 0 5
-588 7 -593 2z m3803 -513 c0 -5 -5 -10 -11 -10 -5 0 -7 5 -4 10 3 6 8 10 11
10 2 0 4 -4 4 -10z m1270 -330 c6 -11 8 -20 6 -20 -3 0 -10 9 -16 20 -6 11 -8
20 -6 20 3 0 10 -9 16 -20z m3281 -3467 c13 -16 12 -17 -3 -4 -17 13 -22 21
-14 21 2 0 10 -8 17 -17z m-14238 -893 c3 -12 1 -18 -5 -14 -6 4 -8 -2 -3 -17
7 -23 6 -23 -8 -4 -14 18 -15 18 -12 -7 2 -20 -1 -25 -11 -21 -12 4 -12 8 -2
22 12 14 11 15 -5 2 -14 -11 -15 -16 -5 -29 11 -13 10 -14 -9 -4 -22 12 -42
35 -26 30 14 -4 73 36 73 49 0 19 7 16 13 -7z m15566 -2818 c-6 -2 0 -13 12
-23 15 -13 17 -19 8 -19 -8 -1 -4 -6 9 -13 17 -10 20 -15 10 -25 -9 -9 -8 -12
8 -12 16 0 17 -2 4 -10 -11 -7 -11 -10 -2 -10 8 0 10 -5 6 -12 -5 -9 -2 -8 9
1 15 12 17 12 11 -4 -5 -11 -4 -16 3 -12 5 3 10 0 10 -8 0 -8 -4 -12 -9 -9 -5
4 -4 -3 3 -14 7 -12 17 -18 22 -15 5 3 4 -5 -3 -17 -7 -12 -8 -20 -2 -16 9 5
15 -8 20 -39 1 -5 -3 -10 -10 -10 -6 0 -12 -6 -14 -13 -1 -7 0 -8 3 -2 3 7 11
6 24 -1 11 -5 17 -14 14 -20 -4 -5 0 -9 7 -9 9 0 10 -2 2 -8 -9 -5 -8 -11 2
-20 10 -10 14 -10 14 -1 0 7 3 9 6 6 4 -4 1 -13 -6 -22 -10 -12 -9 -15 6 -15
14 0 16 -2 6 -9 -11 -6 -10 -11 3 -25 12 -12 13 -16 3 -17 -10 0 -10 -2 0 -6
6 -2 12 -11 12 -19 0 -8 6 -14 13 -15 9 0 9 -2 0 -6 -9 -3 -8 -11 4 -30 9 -14
17 -38 18 -53 1 -16 7 -35 14 -43 8 -11 9 -17 1 -22 -6 -3 -8 -11 -4 -16 3 -5
10 -7 15 -4 5 3 6 -1 3 -9 -4 -9 -1 -16 6 -16 10 0 10 -3 0 -15 -9 -10 -9 -15
-1 -15 6 0 11 -13 11 -30 0 -16 5 -30 10 -30 6 0 10 -5 10 -11 0 -5 -5 -7 -11
-4 -13 8 12 -37 26 -47 6 -5 5 -8 -3 -8 -7 0 -10 -5 -7 -10 4 -6 10 -8 14 -5
5 2 5 -13 1 -35 -5 -29 -4 -40 5 -40 7 0 12 -15 13 -35 1 -20 8 -42 16 -50 10
-11 12 -23 7 -43 -6 -19 -4 -31 5 -40 8 -7 14 -28 14 -47 0 -19 5 -35 10 -35
7 0 7 -7 -1 -21 -8 -15 -8 -19 0 -15 8 5 11 -12 11 -53 0 -75 0 -74 18 -87 10
-7 11 -13 4 -18 -7 -4 -8 -17 -2 -35 4 -16 6 -32 2 -35 -3 -3 1 -6 9 -6 11 0
11 -2 -1 -10 -10 -6 -11 -10 -2 -10 8 0 12 -17 12 -50 0 -30 4 -50 11 -50 6 0
9 -9 6 -20 -3 -11 -2 -22 2 -25 4 -2 6 -17 3 -33 -2 -17 1 -40 8 -52 10 -18
10 -21 -2 -14 -11 6 -11 5 1 -9 7 -9 11 -17 9 -17 -3 0 -2 -20 2 -45 4 -25 3
-45 -1 -45 -4 0 -4 -14 1 -31 5 -18 7 -35 5 -39 -3 -5 2 -11 11 -14 9 -3 12
-11 8 -18 -6 -10 -9 -63 -4 -70 4 -7 4 -68 0 -68 -3 0 -4 -18 -2 -40 2 -22 8
-40 13 -40 5 0 9 -130 9 -301 0 -165 -4 -298 -8 -295 -5 3 -9 -1 -9 -9 0 -8 4
-12 9 -9 13 8 9 -11 -4 -24 -8 -8 -9 -15 -3 -20 13 -9 20 -46 7 -38 -5 3 -9
-1 -9 -9 0 -8 7 -15 16 -15 14 0 14 -1 1 -10 -10 -6 -16 -29 -17 -72 -1 -35
-3 -65 -4 -68 -1 -3 0 -9 1 -15 7 -33 -3 -171 -13 -178 -9 -6 -9 -10 2 -14 9
-4 10 -8 3 -12 -6 -4 -12 -39 -13 -79 -1 -40 -6 -75 -11 -79 -6 -3 -4 -9 3
-14 10 -6 11 -9 2 -9 -8 0 -13 -15 -13 -40 0 -25 -5 -40 -12 -40 -9 0 -8 -4 2
-11 11 -8 12 -12 3 -16 -8 -3 -13 -22 -13 -47 0 -23 -6 -48 -12 -55 -10 -11
-10 -13 0 -7 6 4 12 2 12 -4 0 -6 -6 -13 -14 -16 -11 -4 -13 -12 -6 -30 5 -13
6 -24 1 -24 -5 0 -12 -7 -15 -16 -3 -8 -2 -13 2 -10 5 3 9 -1 9 -9 0 -8 -4
-12 -9 -9 -4 3 -8 -6 -8 -20 0 -14 -5 -28 -10 -31 -8 -5 -7 -11 1 -21 9 -11 8
-15 -5 -20 -9 -3 -13 -10 -10 -15 3 -6 0 -17 -8 -26 -8 -10 -8 -14 -1 -10 6 4
15 2 19 -4 4 -8 3 -9 -4 -5 -7 4 -12 2 -12 -4 0 -6 -4 -9 -9 -6 -5 3 -11 -1
-15 -9 -3 -8 0 -15 7 -15 7 0 4 -5 -5 -11 -10 -5 -15 -16 -12 -24 4 -9 0 -15
-7 -15 -11 0 -11 -3 1 -10 11 -7 11 -10 2 -10 -7 0 -10 -4 -7 -10 3 -5 -1 -10
-9 -10 -19 0 -21 -11 -4 -28 9 -9 9 -12 0 -12 -7 0 -12 -7 -12 -15 0 -8 -5
-15 -11 -15 -7 0 -9 -10 -7 -25 3 -14 1 -23 -6 -22 -6 1 -10 -5 -8 -14 1 -9
-5 -22 -13 -29 -12 -10 -13 -16 -3 -28 10 -13 10 -14 1 -8 -9 5 -13 -1 -13
-19 0 -14 -4 -24 -8 -21 -5 3 -8 -8 -7 -24 1 -23 -1 -27 -11 -19 -10 8 -12 6
-9 -10 2 -12 0 -21 -5 -21 -5 0 -6 -7 -3 -17 5 -12 3 -14 -8 -8 -12 7 -12 6
-1 -7 11 -14 10 -17 -6 -23 -14 -4 -18 -12 -14 -27 3 -12 1 -19 -4 -16 -5 4
-10 -5 -11 -20 0 -14 -8 -29 -17 -34 -12 -7 -14 -14 -6 -28 7 -13 7 -21 0 -25
-6 -4 -7 -11 -4 -17 4 -7 2 -8 -4 -4 -7 4 -12 6 -13 4 0 -2 -2 -30 -5 -63 -6
-72 -11 -88 -24 -80 -5 3 -10 1 -10 -5 0 -6 -4 -8 -10 -5 -5 3 -10 0 -11 -7 0
-10 -2 -10 -6 0 -2 6 -9 10 -14 6 -5 -3 -9 -2 -8 3 4 22 -2 34 -13 27 -8 -5
-8 -1 2 12 8 10 11 16 6 12 -5 -4 -15 -1 -22 7 -16 16 -19 29 -4 20 6 -3 7 1
4 9 -3 9 -10 16 -16 16 -5 0 -6 5 -2 12 5 7 2 9 -8 5 -13 -4 -15 1 -14 24 1
17 -4 35 -13 42 -14 11 -14 10 -1 -8 14 -19 14 -19 -2 -6 -20 15 -25 47 -6 35
7 -4 8 -3 4 4 -4 7 -14 12 -23 12 -13 0 -14 2 -2 17 10 11 10 14 2 9 -11 -6
-18 6 -10 18 1 2 -7 12 -18 22 -11 11 -16 16 -11 12 21 -17 28 -7 8 11 -12 10
-22 26 -22 35 0 9 -6 16 -12 17 -10 0 -10 2 0 6 10 4 9 8 -3 17 -9 6 -18 24
-19 40 -2 16 -9 32 -16 36 -9 6 -9 9 0 15 8 5 8 11 -3 23 -21 26 -32 46 -19
38 18 -11 7 23 -14 40 -13 11 -15 17 -7 20 10 4 9 9 -2 21 -8 8 -13 19 -10 24
4 5 2 9 -4 9 -6 0 -8 6 -5 14 3 8 0 17 -6 21 -9 6 -9 10 1 16 10 6 10 9 2 9
-9 0 -10 7 -4 23 4 12 5 33 1 47 -4 16 -1 30 8 40 10 10 11 15 3 18 -6 2 -11
8 -11 13 0 6 5 7 10 4 8 -5 15 31 11 58 0 4 4 7 10 7 5 0 8 4 4 9 -3 5 -1 13
5 16 8 5 8 11 0 20 -8 10 -8 15 0 20 6 4 9 13 6 21 -3 7 0 19 7 26 7 7 12 34
12 60 -1 26 3 44 7 42 4 -3 8 10 8 29 0 18 3 37 7 41 9 9 9 13 11 84 2 40 5
51 15 46 8 -5 8 -2 -2 9 -7 9 -9 17 -4 17 5 0 11 23 12 52 1 28 7 58 14 67 9
12 9 13 0 7 -7 -4 -13 -3 -13 3 0 5 5 13 11 16 5 4 9 17 8 28 0 12 0 24 1 27
3 7 10 58 16 125 3 33 11 66 17 74 9 12 9 13 0 7 -7 -4 -13 -3 -13 3 0 5 4 12
8 15 5 3 9 33 10 68 1 35 5 74 8 88 4 14 8 50 10 80 2 30 4 55 5 55 1 0 3 14
4 30 2 17 4 30 5 30 3 0 8 73 9 138 1 44 4 56 14 51 7 -5 6 0 -3 11 -8 10 -10
16 -3 12 6 -4 14 -3 18 3 3 5 2 10 -3 10 -5 0 -9 11 -9 25 0 14 4 22 10 18 6
-4 7 -1 2 7 -13 21 -5 195 9 219 4 5 0 12 -6 14 -7 3 -4 6 7 7 18 0 18 2 3 10
-12 8 -15 17 -9 38 4 15 6 33 3 41 -3 9 0 11 8 6 9 -5 11 -4 6 4 -8 13 -11
164 -3 178 2 4 2 16 -2 25 -11 30 -1 129 12 121 7 -4 6 1 -2 10 -8 10 -9 17
-3 17 6 0 10 9 9 20 -1 11 -5 20 -9 20 -4 0 -4 11 1 23 5 13 5 30 1 37 -5 8
-5 21 -1 29 5 9 5 25 1 36 -5 13 -2 27 9 39 9 11 11 16 5 13 -7 -4 -14 3 -16
18 -3 14 -2 25 1 25 4 0 6 17 4 38 -2 32 -3 147 -1 192 0 8 0 29 -1 45 -1 17
0 45 2 63 2 18 0 35 -5 38 -5 3 -5 11 -1 17 4 7 8 19 8 27 0 8 4 21 9 29 6 9
5 12 -1 8 -6 -4 -13 6 -15 24 -3 20 0 33 9 36 7 3 10 9 7 14 -3 5 -9 7 -13 5
-4 -3 -8 1 -8 9 0 8 5 15 11 15 6 0 5 4 -3 9 -12 7 -19 93 -11 136 2 13 0 92
-5 179 -3 50 -1 65 8 59 9 -5 9 -3 0 9 -7 8 -10 18 -6 21 3 4 1 7 -5 7 -7 0
-12 5 -12 11 0 5 4 8 8 5 5 -3 9 1 9 9 0 8 -4 12 -9 9 -5 -3 -8 29 -7 74 1 44
-1 85 -5 91 -4 6 -1 11 6 12 10 0 11 2 0 6 -10 4 -10 8 0 21 10 12 10 14 1 8
-9 -5 -11 1 -8 24 3 16 7 44 10 60 3 23 1 29 -8 24 -8 -6 -8 -3 1 9 11 13 17
14 27 4 7 -7 9 -14 4 -15z m-17219 -218 c0 -8 -19 -13 -24 -6 -3 5 1 9 9 9 8
0 15 -2 15 -3z m13660 -1094 c3 -3 11 -16 18 -29 11 -19 11 -22 0 -15 -8 4 -6
-1 3 -12 9 -10 14 -25 12 -31 -3 -7 2 -13 10 -13 10 0 13 -7 10 -20 -3 -11 0
-20 6 -20 6 0 11 -9 11 -20 0 -11 6 -20 13 -21 9 0 9 -2 0 -6 -10 -3 -10 -7 0
-18 7 -7 17 -10 22 -7 6 3 4 -1 -3 -10 -11 -14 -10 -17 9 -23 16 -6 18 -9 8
-16 -11 -6 -11 -9 2 -14 10 -4 15 -16 13 -31 -1 -13 2 -24 7 -24 6 0 7 -4 4
-10 -3 -5 2 -10 12 -11 10 0 13 -3 6 -6 -7 -2 -13 -9 -13 -14 0 -6 5 -7 10 -4
6 4 10 -5 10 -19 0 -14 5 -26 10 -26 6 0 10 -9 10 -21 0 -13 4 -18 13 -13 7 5
6 0 -3 -11 -8 -10 -10 -16 -4 -12 7 4 14 0 18 -8 3 -8 0 -15 -6 -15 -7 0 -2
-9 10 -20 24 -23 30 -38 9 -24 -7 5 -4 1 6 -8 11 -10 17 -25 14 -33 -4 -8 0
-21 8 -29 8 -8 15 -22 15 -30 0 -9 6 -16 13 -16 8 0 7 -4 -3 -10 -11 -7 -11
-10 -2 -10 7 0 10 -4 7 -10 -3 -5 -1 -10 5 -10 6 0 8 -4 5 -10 -3 -5 -1 -10 6
-10 6 0 9 -8 6 -20 -3 -11 -1 -23 5 -26 5 -3 8 -15 5 -25 -3 -11 -1 -17 4 -13
5 3 9 -4 9 -15 0 -12 4 -21 8 -21 4 0 8 -10 9 -22 1 -11 8 -25 15 -29 10 -7
10 -9 -2 -9 -12 0 -12 -2 -2 -9 8 -4 13 -11 13 -15 -3 -19 0 -27 7 -22 5 3 9
-1 9 -9 0 -8 -5 -11 -10 -8 -6 4 -3 -4 6 -17 12 -18 14 -27 5 -37 -9 -11 -7
-12 7 -7 13 5 16 4 11 -4 -4 -7 -3 -12 2 -12 5 0 8 -11 7 -25 -2 -14 0 -25 4
-25 4 0 8 -12 9 -26 1 -15 8 -34 15 -42 8 -10 8 -13 0 -9 -8 5 -8 1 0 -18 7
-14 16 -25 21 -25 5 0 3 -6 -3 -14 -8 -10 -9 -16 -1 -21 5 -3 10 -17 10 -31 0
-18 4 -23 13 -18 9 6 9 5 -1 -8 -10 -12 -10 -18 2 -27 8 -7 12 -19 9 -27 -3
-8 -1 -14 4 -14 5 0 9 -10 10 -22 1 -56 4 -69 13 -63 14 9 12 -8 -2 -24 -8 -9
-8 -11 -2 -8 13 8 27 -20 18 -34 -3 -5 0 -9 5 -9 6 0 10 -3 10 -7 -4 -27 2
-73 10 -69 4 3 8 -9 8 -27 0 -17 5 -42 11 -54 14 -26 16 -44 2 -23 -6 9 -10
10 -10 3 0 -6 5 -15 10 -18 6 -3 10 -26 10 -50 0 -24 4 -46 9 -50 6 -3 8 -14
6 -25 -2 -11 1 -22 7 -26 6 -4 5 -10 -3 -15 -10 -6 -11 -9 -1 -9 6 0 12 -5 12
-11 0 -5 -6 -7 -12 -3 -7 4 -6 -1 3 -12 10 -12 17 -40 18 -74 2 -60 5 -92 14
-130 4 -14 9 -54 12 -89 3 -35 8 -67 11 -72 3 -5 7 -107 10 -226 3 -120 6
-224 6 -230 1 -9 5 -10 15 -2 7 6 10 16 6 22 -8 14 -9 58 0 80 3 9 2 17 -4 17
-6 0 -7 5 -4 10 4 6 10 8 15 5 4 -3 6 4 3 14 -3 10 1 29 7 41 9 17 9 21 0 15
-9 -6 -9 -3 -1 13 19 35 34 163 32 265 -2 83 -1 96 12 91 9 -3 14 -14 12 -25
-2 -10 1 -21 6 -24 5 -4 7 -10 5 -14 -3 -4 0 -25 6 -47 6 -21 12 -50 13 -64 2
-14 4 -25 5 -25 1 0 2 -26 2 -57 1 -32 4 -58 8 -58 7 0 8 -3 11 -57 1 -20 6
-30 13 -26 6 4 5 0 -2 -9 -10 -12 -10 -18 2 -27 9 -8 11 -22 6 -51 -4 -23 -3
-40 2 -40 5 0 6 -4 3 -10 -3 -5 0 -10 7 -10 9 0 9 -3 -2 -10 -13 -9 -13 -10 0
-11 8 -1 17 -1 20 -1 3 0 4 -23 3 -51 l-3 -52 20 43 c11 24 24 41 30 37 5 -3
10 0 10 7 0 7 6 4 12 -7 15 -25 19 -47 7 -39 -5 3 -9 1 -9 -5 0 -5 9 -13 21
-16 16 -5 18 -10 8 -21 -8 -10 -8 -14 0 -14 6 0 11 -7 11 -15 0 -8 6 -15 13
-15 8 0 7 -3 -3 -10 -12 -8 -12 -10 3 -16 9 -3 17 -10 17 -16 0 -5 -6 -6 -12
-3 -7 4 -5 0 4 -8 13 -10 15 -16 6 -25 -9 -9 -9 -12 0 -12 7 0 12 -7 12 -15 0
-8 6 -15 13 -15 8 0 7 -3 -3 -10 -13 -8 -13 -11 -1 -22 11 -11 13 -11 6 1 -5
9 -4 12 3 7 7 -4 12 -15 12 -24 0 -9 7 -30 15 -45 9 -18 10 -25 2 -20 -9 5 -9
3 -1 -8 6 -8 14 -23 16 -34 3 -11 9 -29 13 -40 5 -16 5 -17 -4 -5 -7 9 -11 10
-11 3 0 -6 5 -15 10 -18 6 -3 10 -15 10 -26 0 -11 4 -18 8 -15 5 3 9 -1 9 -9
0 -8 -5 -11 -11 -8 -6 4 -5 0 1 -9 7 -8 10 -18 6 -21 -3 -4 2 -7 12 -7 14 0
15 -3 5 -15 -7 -8 -8 -15 -3 -15 5 0 10 -12 11 -26 3 -33 11 -46 24 -38 7 4 8
2 4 -5 -4 -6 -12 -9 -17 -6 -5 4 -9 1 -9 -4 0 -6 5 -11 10 -11 6 0 10 -20 10
-45 0 -27 5 -45 11 -45 8 0 8 -5 -1 -15 -9 -10 -9 -15 -1 -15 7 0 11 -30 11
-90 0 -49 4 -90 9 -90 5 0 10 -140 11 -332 0 -182 3 -335 6 -339 3 -5 -2 -6
-12 -2 -14 5 -15 3 -4 -17 8 -15 8 -20 1 -16 -8 5 -11 -15 -11 -63 0 -46 -4
-71 -11 -71 -8 0 -7 -6 2 -17 10 -11 10 -14 2 -9 -10 5 -13 -9 -13 -58 0 -46
-4 -66 -12 -66 -8 0 -9 -3 -3 -8 13 -9 18 -35 5 -27 -10 6 -12 -5 -13 -52 0
-13 -4 -23 -8 -23 -5 0 -9 -11 -9 -25 0 -14 -6 -25 -12 -25 -9 0 -8 -4 2 -11
11 -8 12 -12 3 -16 -7 -2 -13 -16 -13 -29 0 -13 -6 -24 -12 -24 -9 0 -8 -4 2
-10 13 -9 13 -11 0 -20 -8 -5 -11 -10 -6 -10 6 0 1 -7 -10 -16 -10 -8 -12 -12
-4 -8 13 7 13 5 1 -9 -9 -12 -10 -17 -2 -17 7 0 3 -10 -9 -22 -11 -12 -20 -27
-20 -32 0 -6 5 -4 11 4 9 13 10 13 5 0 -3 -8 -9 -23 -12 -32 -4 -10 -11 -18
-18 -18 -6 0 -4 -5 4 -10 11 -7 11 -10 2 -10 -7 0 -10 -5 -6 -12 4 -6 3 -8 -4
-4 -6 3 -19 -5 -30 -19 -11 -13 -23 -21 -27 -17 -4 4 -2 -3 4 -16 12 -22 11
-23 -7 -13 -17 9 -19 8 -15 -9 4 -16 2 -19 -12 -13 -13 4 -16 3 -11 -5 4 -7 1
-12 -8 -12 -10 0 -13 -6 -9 -17 6 -16 5 -16 -10 -4 -15 12 -17 12 -11 -4 5
-13 4 -16 -4 -11 -8 4 -10 2 -6 -8 4 -10 -2 -16 -18 -18 -13 -2 -22 -9 -21
-15 2 -7 -15 -17 -37 -23 -22 -6 -40 -13 -40 -16 0 -4 7 -4 15 -1 8 4 17 1 21
-5 4 -7 3 -8 -4 -4 -7 4 -12 2 -12 -4 0 -6 -5 -8 -12 -4 -8 5 -9 2 -5 -9 3 -9
3 -16 -1 -16 -24 4 -52 -2 -48 -10 3 -5 -1 -12 -10 -15 -8 -3 -12 -2 -9 4 3 6
4 10 0 10 -3 0 -10 -11 -15 -25 -9 -23 -12 -25 -32 -14 -20 11 -22 10 -10 -3
11 -13 10 -16 -5 -14 -10 0 -17 -5 -15 -12 2 -10 -2 -10 -19 -2 -19 11 -20 10
-9 -10 11 -20 10 -21 -9 -10 -17 8 -21 8 -19 -2 2 -7 -3 -12 -11 -10 -9 2 -11
-3 -7 -13 4 -13 2 -14 -14 -5 -16 9 -18 8 -14 -5 4 -10 2 -15 -7 -13 -7 2 -13
-2 -14 -9 0 -6 -4 -15 -9 -20 -5 -5 -6 -3 -2 5 4 7 1 12 -9 12 -10 0 -13 -5
-9 -12 5 -8 2 -9 -10 -5 -10 4 -15 3 -11 -3 3 -6 1 -10 -5 -10 -6 0 -9 -4 -6
-9 3 -4 -6 -6 -19 -3 -15 2 -25 0 -25 -7 0 -7 5 -9 13 -5 8 5 8 2 -2 -9 -15
-18 -26 -23 -16 -7 7 12 3 12 -19 4 -9 -3 -14 -10 -11 -14 3 -5 1 -11 -5 -15
-5 -3 -10 0 -11 7 0 7 -4 4 -9 -7 -5 -11 -9 -14 -9 -7 -1 7 -6 10 -11 7 -6 -4
-7 -11 -4 -17 5 -7 1 -9 -9 -5 -16 6 -22 -3 -18 -26 1 -5 -3 -6 -9 -2 -6 3 -7
11 -4 17 4 7 2 8 -4 4 -7 -4 -12 -15 -12 -24 0 -15 -2 -15 -10 -2 -9 13 -10
13 -11 0 -1 -8 -1 -19 0 -23 1 -5 -3 -6 -9 -2 -6 3 -8 12 -5 18 3 7 -1 2 -10
-10 -16 -21 -51 -22 -38 0 3 6 1 7 -6 3 -6 -4 -9 -12 -6 -17 4 -5 1 -17 -4
-26 -6 -10 -11 -12 -11 -5 0 6 -5 12 -11 12 -6 0 -9 -7 -5 -15 3 -10 -3 -17
-19 -21 -13 -3 -31 -14 -41 -25 -21 -23 -12 -26 10 -3 9 8 16 11 16 5 0 -13
-38 -34 -49 -26 -5 3 -7 -5 -4 -17 4 -19 3 -20 -6 -8 -9 13 -11 11 -11 -7 0
-12 -5 -25 -12 -29 -7 -5 -8 -3 -3 6 5 8 4 11 -3 7 -5 -4 -9 -18 -7 -32 2 -20
0 -23 -11 -14 -13 11 -18 5 -15 -14 2 -12 -26 -37 -33 -29 -4 3 -4 0 -1 -9 3
-8 -4 -25 -15 -37 -11 -12 -18 -22 -14 -22 4 0 -1 -10 -12 -22 -10 -12 -13
-18 -5 -13 10 6 12 4 7 -4 -5 -7 -14 -10 -22 -7 -12 5 -12 2 -3 -15 8 -15 8
-19 0 -15 -7 4 -11 -1 -11 -13 0 -12 -3 -21 -8 -21 -4 0 -8 -21 -9 -47 -2 -27
-8 -50 -14 -52 -8 -2 -7 -6 2 -12 10 -6 11 -9 2 -9 -10 0 -13 -24 -13 -85 0
-53 4 -85 11 -85 5 0 7 -5 4 -10 -4 -6 -11 -7 -17 -4 -7 4 -8 2 -4 -5 4 -6 12
-9 17 -6 5 4 9 0 9 -8 0 -8 10 -19 23 -26 12 -6 14 -9 5 -7 -10 3 -18 3 -18 1
0 -4 51 -33 67 -38 5 -1 7 -4 6 -7 -1 -3 14 -5 33 -5 19 1 38 -3 42 -9 10 -16
95 -14 105 2 7 10 12 10 23 1 11 -9 14 -8 14 5 0 10 4 15 8 12 4 -2 14 -1 22
5 12 7 12 9 1 9 -11 0 -11 3 0 16 11 14 11 18 -4 29 -9 6 -14 15 -11 18 3 3
-3 3 -15 0 -12 -3 -21 -1 -21 6 0 6 -3 10 -7 10 -19 -3 -36 2 -30 8 9 9 -31
36 -42 28 -5 -3 -13 0 -17 6 -4 8 -3 9 4 5 7 -4 12 -4 12 -1 0 10 -27 35 -32
30 -3 -3 -5 2 -5 10 0 8 4 12 9 9 4 -3 8 -1 8 4 0 6 -7 13 -16 16 -8 3 -12 10
-9 16 3 5 0 10 -7 10 -9 0 -9 3 2 10 14 9 6 15 -15 10 -5 -1 1 10 15 25 20 21
21 25 6 19 -15 -6 -17 -4 -10 7 14 23 15 52 2 61 -10 6 -10 8 0 8 6 0 12 7 12
15 0 8 -6 15 -12 15 -9 0 -8 4 2 10 8 5 11 10 6 10 -6 0 -1 7 10 15 19 15 19
15 -1 8 -17 -6 -18 -5 -5 9 8 9 18 14 21 12 4 -2 10 3 13 12 4 10 2 13 -7 8
-9 -6 -9 -5 0 8 7 8 10 18 6 21 -3 4 -1 7 6 7 9 0 11 9 7 28 -3 15 -3 21 0 15
3 -7 10 -13 15 -13 6 0 8 4 5 9 -3 4 3 16 14 26 11 10 17 22 14 27 -4 6 4 4
17 -3 23 -12 23 -11 9 6 -8 10 -10 16 -3 12 6 -4 19 0 27 9 15 14 20 11 17 -8
-3 -19 10 -6 20 20 7 15 13 22 16 15 3 -7 9 -13 14 -13 4 0 6 8 2 18 -3 9 -3
14 1 10 5 -4 18 2 29 13 12 11 28 17 35 14 10 -3 12 0 8 10 -7 20 4 19 20 -2
13 -17 14 -17 7 2 -6 18 -5 19 12 5 10 -8 16 -10 12 -4 -9 15 17 26 67 29 21
1 42 9 47 16 7 12 9 12 9 0 0 -11 3 -11 15 -1 8 7 15 9 15 4 0 -5 5 -1 11 9 8
13 14 15 29 7 13 -7 21 -7 25 0 3 5 16 10 28 10 18 0 19 2 7 10 -8 5 -10 10
-4 10 5 0 15 -5 21 -11 7 -7 15 -5 27 6 9 9 16 14 16 11 0 -3 12 1 27 9 15 8
31 11 36 8 6 -3 7 -1 3 5 -4 7 -1 12 7 12 8 0 18 7 21 16 5 12 10 14 19 5 11
-8 19 -4 38 17 l24 27 -30 -25 -30 -25 24 27 c19 21 27 25 38 17 7 -6 14 -9
14 -5 1 3 2 9 3 14 3 17 18 32 27 27 5 -4 9 -1 9 6 0 7 3 9 6 6 4 -3 15 5 26
18 11 14 24 22 30 19 6 -4 8 2 3 17 -5 19 -4 21 5 9 9 -13 12 -13 24 3 7 9 19
17 25 17 7 0 10 4 7 9 -4 5 4 7 16 4 19 -4 20 -3 8 6 -12 8 -12 11 -1 11 8 0
11 6 7 16 -3 8 -2 13 3 10 12 -8 33 19 23 30 -4 4 1 2 11 -5 16 -13 19 -12 24
7 5 21 15 27 37 23 5 -1 4 4 -3 12 -9 12 -8 15 6 13 11 0 17 5 17 16 -1 10 3
15 9 11 7 -4 8 0 3 12 -5 15 -4 16 9 5 13 -11 14 -10 9 5 -5 13 -4 16 5 11 8
-6 11 -2 9 10 -2 12 2 18 11 16 8 -2 11 3 8 12 -4 9 -1 18 5 22 7 4 8 3 4 -4
-4 -7 -3 -12 1 -12 5 0 14 9 21 21 11 17 11 20 0 14 -7 -3 -5 0 5 8 9 8 17 20
17 27 0 10 4 9 17 -1 9 -8 14 -9 10 -2 -9 14 10 66 22 59 4 -3 7 6 5 20 -2 18
2 24 11 20 18 -6 26 18 12 34 -10 10 -7 10 11 1 14 -8 22 -8 22 -1 0 5 -4 10
-10 10 -5 0 -10 5 -10 11 0 5 4 8 9 5 5 -3 14 1 21 9 9 11 9 15 1 15 -7 0 -9
5 -6 10 4 6 10 8 15 5 5 -3 12 5 16 17 3 12 16 30 28 41 15 13 17 20 8 24 -9
3 -7 10 9 24 12 10 17 19 10 19 -7 0 -9 5 -6 10 4 6 10 8 15 5 5 -3 11 8 15
25 4 19 11 28 18 23 7 -4 5 2 -3 12 -9 11 -10 16 -2 11 8 -5 12 0 12 13 0 12
5 21 12 21 6 0 8 3 5 7 -4 3 1 12 11 20 11 9 11 12 2 7 -12 -6 -13 -4 -2 7 6
7 12 23 12 35 0 13 5 26 12 30 7 5 8 3 3 -6 -5 -9 -4 -11 4 -6 9 6 9 11 1 21
-8 10 -8 15 0 20 13 8 29 47 37 85 2 13 10 28 16 32 9 5 8 8 -3 8 -9 0 -11 3
-5 8 6 4 16 17 23 30 10 18 10 22 0 22 -9 1 -8 5 3 13 9 7 14 18 11 26 -3 10
0 11 9 5 11 -6 10 -3 -1 11 -8 10 -10 16 -4 12 8 -4 13 14 17 56 3 34 8 71 11
82 2 11 9 42 16 69 13 57 28 90 31 66 4 -42 8 -57 18 -83 6 -15 13 -60 17
-100 3 -39 8 -75 11 -79 2 -5 -2 -8 -9 -8 -9 -1 -7 -5 4 -14 14 -10 15 -15 5
-26 -9 -10 -9 -11 1 -5 10 5 13 1 12 -11 -1 -11 -1 -23 0 -29 6 -29 4 -61 -5
-67 -6 -5 -5 -8 4 -8 11 0 11 -3 1 -15 -7 -9 -8 -15 -2 -15 5 0 13 -7 16 -16
4 -9 2 -13 -5 -8 -6 3 -4 -5 6 -19 10 -16 12 -27 6 -32 -7 -4 -6 -17 4 -41 10
-24 11 -33 2 -27 -9 5 -9 3 0 -8 13 -17 20 -60 11 -74 -9 -16 10 -57 23 -49 8
4 9 3 5 -5 -4 -6 -13 -8 -19 -4 -7 4 -6 0 2 -10 7 -9 11 -17 8 -17 -3 0 -1
-16 3 -35 5 -23 4 -35 -3 -35 -5 0 -3 -8 6 -18 13 -14 14 -21 5 -30 -8 -8 -8
-12 -1 -12 13 0 24 -38 13 -45 -5 -3 -5 -18 0 -34 4 -16 6 -32 3 -35 -3 -3 0
-13 8 -23 11 -14 11 -15 0 -9 -9 6 -8 1 3 -16 9 -14 13 -28 9 -31 -10 -11 -3
-120 9 -134 6 -7 8 -22 5 -33 -3 -11 0 -20 6 -20 7 0 5 -5 -3 -10 -13 -9 -13
-10 0 -10 13 0 13 -1 0 -10 -12 -8 -12 -10 -1 -10 10 0 11 -3 2 -13 -6 -8 -9
-16 -6 -18 2 -3 5 -24 6 -47 2 -23 6 -42 11 -42 4 0 7 -144 7 -320 0 -177 -4
-318 -9 -315 -5 3 -8 -9 -8 -26 1 -17 -5 -35 -13 -40 -12 -7 -12 -9 0 -9 10 0
11 -3 2 -13 -6 -8 -8 -17 -4 -20 3 -4 2 -7 -3 -7 -6 0 -8 -16 -6 -35 4 -31 12
-40 34 -36 4 0 8 -85 10 -189 2 -105 0 -190 -3 -190 -4 0 -10 -7 -13 -16 -3
-9 -2 -12 5 -8 7 4 7 0 0 -12 -23 -43 -28 -68 -32 -151 -1 -29 -5 -50 -9 -48
-4 2 -7 -2 -7 -10 0 -8 4 -12 9 -9 4 3 5 -2 2 -10 -3 -9 -9 -16 -13 -16 -3 0
-6 -21 -7 -47 0 -27 -3 -57 -6 -68 -3 -12 -8 -36 -9 -55 -2 -19 -8 -38 -14
-42 -6 -5 -5 -8 4 -8 9 0 10 -4 4 -12 -15 -19 -22 -58 -11 -58 5 0 2 -7 -6
-16 -18 -17 -21 -28 -6 -19 6 3 10 1 10 -4 0 -6 -5 -11 -11 -11 -6 0 -9 -7 -5
-15 3 -8 -2 -19 -12 -24 -11 -7 -12 -11 -4 -11 10 0 10 -5 -2 -22 -11 -16 -13
-25 -4 -35 8 -9 7 -13 -1 -13 -7 0 -9 -4 -6 -10 3 -5 2 -10 -3 -10 -5 0 -9
-16 -9 -36 1 -21 -5 -39 -13 -45 -11 -6 -12 -9 -2 -9 8 0 10 -5 5 -13 -8 -12
-12 -28 -15 -60 -1 -9 -7 -17 -13 -17 -5 0 -3 -5 5 -10 10 -6 11 -10 3 -10 -7
0 -13 -7 -13 -16 0 -8 -4 -12 -10 -9 -5 3 -10 2 -10 -4 0 -5 4 -11 9 -13 5 -1
1 -20 -9 -41 -10 -20 -15 -35 -11 -33 4 3 7 -4 7 -14 0 -10 -5 -16 -11 -13 -8
2 -10 -7 -7 -27 3 -19 0 -30 -7 -30 -7 0 -9 5 -5 12 5 8 2 9 -9 5 -10 -3 -17
-2 -17 4 0 6 -5 7 -10 4 -6 -4 -9 -1 -8 7 2 8 -5 12 -20 11 -13 -2 -21 1 -17
7 5 9 -24 15 -48 11 -5 -1 -6 3 -2 9 3 5 -1 10 -10 10 -11 0 -15 5 -12 14 4
10 -1 13 -18 11 -14 -1 -22 1 -20 5 3 4 -3 14 -12 21 -14 12 -16 12 -8 -1 8
-13 6 -13 -8 -1 -9 7 -14 18 -10 25 3 6 0 6 -8 -1 -7 -7 -18 -13 -24 -13 -5 0
-3 5 5 10 12 8 13 13 3 29 -11 17 -10 19 7 16 14 -3 17 1 13 12 -4 10 -2 14 5
9 6 -3 13 -2 17 4 3 5 2 10 -3 10 -5 0 -9 7 -9 15 0 8 3 12 7 10 4 -2 17 7 28
20 12 14 17 25 12 25 -6 0 -10 5 -10 10 0 6 10 10 23 10 17 0 19 2 7 10 -12 8
-12 10 3 16 9 3 14 10 11 15 -3 5 1 9 8 9 9 0 9 3 -2 10 -13 8 -12 10 3 10 10
0 15 5 12 10 -3 6 0 10 7 11 7 0 4 4 -7 9 -17 7 -17 9 -2 9 9 1 17 8 17 16 0
8 6 15 13 15 8 0 7 4 -3 10 -11 7 -11 10 -2 10 7 0 10 4 7 10 -3 5 2 10 12 10
14 0 15 2 4 9 -11 7 -11 10 2 17 20 12 22 25 5 35 -10 7 -8 9 6 9 12 0 16 5
12 16 -3 8 -2 13 3 10 5 -3 12 1 15 10 3 8 2 13 -2 10 -5 -3 -9 1 -9 9 0 8 3
13 6 11 3 -2 12 2 19 10 8 9 9 14 2 14 -6 0 -8 5 -5 10 4 6 12 7 18 4 7 -4 9
-4 5 1 -4 4 -3 15 4 22 9 11 9 16 -2 23 -11 7 -9 13 11 29 20 18 22 22 9 31
-10 6 -11 10 -2 10 6 0 12 11 12 25 0 14 -5 25 -11 25 -8 0 -9 4 0 13 14 18 2
30 -16 16 -7 -6 -13 -7 -13 -3 0 5 -10 15 -21 23 -20 12 -21 11 -15 -5 4 -10
4 -15 0 -12 -12 13 -44 -11 -37 -29 4 -10 2 -14 -4 -10 -6 4 -18 -4 -27 -17
-12 -18 -12 -26 -3 -29 7 -3 6 -6 -4 -6 -9 -1 -20 -8 -23 -17 -4 -10 -2 -13 7
-9 6 4 1 -2 -12 -13 -13 -11 -21 -24 -17 -31 4 -6 1 -11 -8 -11 -10 0 -13 -6
-9 -17 4 -11 3 -14 -6 -9 -8 5 -14 1 -18 -13 -3 -12 -10 -18 -17 -14 -6 3 -8
3 -4 -2 10 -11 -11 -47 -22 -40 -6 4 -7 -1 -3 -11 5 -14 3 -16 -11 -11 -9 4
-15 3 -11 -2 3 -5 2 -11 -2 -14 -5 -2 -3 -2 4 -1 7 2 10 -3 6 -11 -3 -8 -9
-12 -14 -9 -5 3 -9 0 -9 -5 0 -22 -2 -26 -16 -42 -8 -9 -11 -19 -7 -24 5 -4 2
-5 -5 -1 -11 6 -11 11 0 23 12 15 11 15 -9 3 -12 -8 -20 -17 -17 -21 2 -4 -3
-9 -11 -13 -8 -3 -12 -12 -9 -21 4 -9 3 -15 -2 -14 -21 4 -28 -2 -14 -11 12
-8 10 -10 -10 -10 -20 0 -22 -2 -10 -10 11 -7 11 -10 2 -10 -7 0 -10 -5 -6
-12 4 -7 3 -8 -4 -4 -7 4 -20 2 -29 -4 -17 -11 -17 -11 1 -6 16 6 17 4 6 -9
-7 -8 -16 -12 -21 -9 -5 3 -9 0 -9 -6 0 -6 -4 -9 -9 -5 -6 3 -8 -4 -6 -16 4
-17 2 -19 -11 -8 -8 6 -17 9 -21 5 -3 -3 -1 -6 5 -6 7 0 12 -5 12 -11 0 -5 -4
-7 -10 -4 -5 3 -10 1 -10 -4 0 -6 -10 -11 -22 -11 -19 0 -20 -2 -8 -10 11 -7
11 -10 2 -10 -17 0 -63 46 -54 55 4 3 -5 2 -20 -4 -23 -9 -26 -8 -21 6 4 11 3
14 -5 9 -7 -4 -12 -3 -12 1 0 5 -10 9 -22 10 -11 1 -24 6 -27 10 -6 8 -23 10
-99 12 -24 1 -31 5 -26 14 6 9 5 9 -8 -1 -12 -10 -18 -9 -28 3 -7 8 -16 12
-21 9 -5 -3 -9 1 -9 8 0 11 -2 10 -9 0 -6 -11 -9 -9 -13 6 -4 14 -13 19 -32
17 -14 -2 -26 0 -26 5 0 4 -7 11 -16 14 -8 3 -12 2 -9 -4 3 -6 2 -10 -3 -10
-5 0 -12 9 -15 20 -3 13 -11 18 -26 15 -11 -2 -23 1 -27 6 -4 6 -11 6 -20 -2
-12 -10 -13 -9 -9 4 5 12 0 15 -24 13 -18 -1 -32 3 -36 12 -2 7 -9 11 -15 7
-5 -3 -18 -1 -28 4 -13 7 -23 6 -31 -2 -10 -9 -11 -8 -5 6 3 10 3 17 -2 16
-29 -5 -55 2 -48 14 6 9 4 9 -8 -1 -12 -10 -18 -10 -23 -2 -4 7 -18 10 -32 7
-13 -2 -30 2 -39 10 -11 11 -14 12 -14 1 0 -8 -3 -9 -8 -3 -4 6 -20 12 -37 14
-16 1 -34 6 -40 10 -5 4 -23 8 -40 9 -16 1 -34 7 -39 12 -6 6 -18 10 -29 10
-12 0 -16 4 -11 12 5 8 0 7 -11 -2 -11 -9 -16 -10 -11 -3 4 8 1 13 -9 13 -9 0
-13 4 -10 10 3 5 0 7 -8 4 -8 -3 -17 2 -21 11 -3 9 -11 13 -16 10 -6 -4 -22 1
-37 10 -14 9 -22 12 -19 6 5 -8 0 -8 -18 1 -14 6 -26 15 -26 20 0 4 -9 8 -20
8 -11 0 -20 6 -20 13 0 9 -2 9 -9 -1 -6 -10 -10 -8 -14 8 -3 13 -10 19 -17 15
-6 -4 -18 1 -26 11 -9 11 -13 14 -10 8 3 -6 -1 -11 -8 -11 -8 0 -12 7 -8 15 3
9 1 13 -5 9 -11 -7 -28 20 -24 36 1 5 -3 6 -9 2 -5 -3 -10 -1 -10 4 0 6 -6 11
-13 11 -12 0 -57 43 -57 55 0 3 0 10 0 15 0 6 -8 10 -18 10 -11 0 -27 10 -38
23 l-19 22 23 -19 c12 -11 22 -15 22 -10 0 15 -40 35 -53 27 -9 -5 -9 -3 0 9
16 18 5 32 -14 17 -10 -9 -13 -7 -13 6 0 11 -5 15 -14 12 -8 -3 -22 3 -32 14
-10 11 -12 19 -6 19 7 0 12 -4 12 -10 0 -5 5 -10 11 -10 8 0 7 5 -2 16 -7 8
-22 14 -34 12 -17 -4 -21 0 -20 16 2 24 -52 69 -69 59 -6 -4 -5 1 3 11 8 9 10
16 5 15 -21 -4 -34 2 -34 15 0 8 -5 18 -12 22 -7 5 -8 3 -3 -6 6 -9 4 -11 -4
-6 -7 5 -10 15 -6 24 3 9 3 13 -1 10 -8 -8 -34 16 -34 32 0 6 -4 8 -10 5 -5
-3 -10 -1 -10 5 0 7 -7 10 -14 7 -11 -4 -13 -1 -9 10 4 11 2 14 -5 9 -7 -4
-12 -2 -12 4 0 6 -6 10 -12 9 -21 -4 -48 12 -48 28 0 9 -6 13 -15 10 -8 -4
-17 -1 -21 5 -4 7 -3 8 4 4 7 -4 12 -2 12 5 0 6 -8 9 -20 6 -11 -3 -18 -1 -15
3 3 5 1 11 -4 15 -6 3 -7 13 -4 23 6 16 6 16 -11 0 -19 -20 -31 -24 -21 -8 9
15 -18 40 -44 40 -5 0 -13 10 -16 21 -5 16 -9 18 -15 9 -6 -9 -10 -6 -15 10
-6 18 -9 20 -16 9 -5 -8 -9 -9 -9 -3 0 7 -16 15 -35 18 -19 4 -35 11 -35 16 0
5 -7 7 -15 4 -8 -4 -15 -1 -15 5 0 6 -7 11 -16 11 -9 0 -12 5 -8 13 5 7 0 6
-11 -3 -11 -9 -16 -10 -11 -2 4 7 2 12 -4 12 -6 0 -8 5 -5 10 6 9 -8 14 -28
11 -5 -1 -6 2 -3 7 3 5 -14 19 -37 32 -53 30 -101 63 -105 73 -2 4 -10 7 -19
7 -8 0 -21 7 -29 15 -11 11 -12 15 -3 15 7 0 9 3 6 6 -4 4 -13 1 -22 -6 -12
-10 -15 -10 -15 3 0 11 -5 14 -17 10 -11 -5 -14 -3 -8 6 5 10 2 11 -14 6 -13
-4 -21 -2 -21 6 0 8 -4 8 -15 -1 -13 -11 -14 -10 -9 5 5 13 4 16 -4 11 -7 -4
-12 -2 -12 4 0 6 -4 8 -10 5 -5 -3 -10 0 -10 7 0 10 -2 10 -9 0 -12 -19 -15
-19 -35 1 -10 9 -23 14 -29 10 -7 -3 -9 -3 -5 2 4 4 3 14 -3 22 -9 10 -8 13 1
13 9 0 8 5 -3 18 -20 22 -23 82 -4 82 8 0 7 4 -3 10 -12 7 -12 10 -1 10 7 0
11 6 7 15 -3 8 -1 15 5 15 6 0 7 4 4 10 -3 5 0 10 7 11 10 0 10 2 -1 6 -10 4
-10 7 -1 13 6 4 12 15 14 24 1 10 9 22 17 27 12 7 12 9 -1 9 -12 0 -12 2 -2 9
7 4 12 14 10 22 -2 8 2 13 9 12 6 -1 14 4 17 13 4 10 2 13 -7 8 -8 -5 -8 -2 2
9 7 9 18 14 24 10 6 -3 7 -1 3 5 -3 6 2 16 11 22 17 11 16 11 -1 5 -19 -6 -19
-5 -3 13 9 10 14 22 10 26 -4 4 -1 4 8 1 11 -4 15 1 16 17 3 45 7 68 14 68 10
0 19 -54 24 -140 3 -41 9 -87 14 -101 5 -15 8 -42 7 -62 -1 -19 1 -35 4 -35
17 1 20 -4 11 -21 -9 -16 -8 -18 12 -14 18 4 19 3 7 -6 -10 -7 -11 -11 -2 -11
6 0 12 -5 12 -11 0 -5 -5 -7 -11 -4 -6 4 -5 -2 2 -13 7 -12 16 -19 20 -16 9 5
6 -17 -5 -34 -7 -11 -4 -12 11 -4 16 9 19 7 20 -11 1 -12 7 -23 13 -25 5 -2
10 -9 10 -16 0 -6 9 -19 20 -29 23 -19 26 -37 8 -37 -9 0 -8 -3 2 -9 8 -6 17
-8 21 -5 4 2 10 0 14 -5 3 -6 11 -9 18 -7 7 1 8 1 4 -2 -11 -6 13 -32 30 -32
7 0 16 -6 19 -14 3 -8 12 -12 20 -9 7 3 17 -2 20 -12 4 -9 13 -14 21 -11 9 4
17 -2 20 -15 4 -16 8 -17 14 -7 7 10 9 10 9 1 0 -7 7 -13 16 -13 8 0 12 -5 9
-10 -8 -13 18 -8 27 5 4 6 8 0 8 -12 0 -13 5 -23 11 -23 5 0 7 6 3 13 -4 6 4
2 18 -10 25 -24 44 -31 33 -12 -4 6 2 5 13 -2 12 -7 18 -17 15 -22 -3 -5 4 -4
16 2 17 10 22 9 27 -2 3 -9 13 -13 25 -10 11 3 19 0 19 -7 0 -9 4 -9 17 1 11
10 14 10 9 2 -5 -9 -1 -13 11 -13 11 0 24 -5 31 -12 9 -9 12 -9 12 3 1 10 4 8
11 -5 9 -15 13 -16 20 -5 5 9 9 10 9 2 0 -6 9 -9 20 -6 11 3 20 0 20 -6 0 -6
5 -11 11 -11 5 0 8 4 5 8 -3 5 1 9 9 9 8 0 13 -5 12 -10 -2 -11 135 -13 153
-2 9 5 11 4 6 -3 -5 -8 -2 -10 9 -6 25 10 16 66 -14 89 -16 12 -22 13 -17 4 4
-8 1 -6 -7 4 -11 14 -16 15 -20 5 -3 -7 -6 -2 -6 11 -1 18 -4 21 -14 12 -17
-13 -27 -5 -27 23 0 17 -2 18 -10 6 -9 -13 -12 -13 -25 4 -7 10 -17 16 -22 13
-4 -3 -17 2 -28 10 -19 15 -19 15 4 8 16 -5 21 -4 17 4 -4 6 -14 11 -22 11 -8
0 -14 5 -14 10 0 6 -7 10 -16 10 -11 0 -15 6 -11 20 3 10 2 19 -2 18 -16 -2
-31 3 -30 10 3 19 -2 33 -11 27 -6 -3 -7 1 -4 9 4 11 0 16 -11 16 -14 0 -15 3
-5 15 10 12 9 16 -5 21 -13 5 -14 9 -3 15 10 7 8 9 -6 9 -15 0 -16 3 -6 15 11
13 8 18 -10 17 -3 0 -4 25 -3 56 1 31 3 57 3 57 1 0 3 20 3 44 1 24 7 46 14
48 7 3 9 11 6 20 -5 12 -3 14 8 8 11 -7 11 -5 -1 10 -11 13 -11 17 -2 11 10
-6 13 -3 10 10 -2 11 3 24 12 31 11 9 12 12 2 13 -10 0 -10 4 2 15 8 8 13 24
11 35 -2 11 0 18 6 15 5 -4 9 1 9 10 0 9 5 13 10 10 6 -3 10 -2 10 4 0 5 -6
12 -12 15 -7 4 -4 5 8 2 12 -2 21 2 21 10 0 7 -5 11 -11 8 -6 -3 0 4 14 16 14
12 19 19 11 15 -9 -5 -8 0 4 18 9 15 13 32 9 38 -4 7 -3 9 3 6 6 -4 16 0 23 9
11 12 15 12 22 2 6 -9 8 -7 7 7 -2 33 0 38 15 26 12 -10 14 -7 11 15 -2 26 -2
27 11 9 12 -17 18 -14 15 7 0 4 21 6 48 5 38 -2 47 1 43 12 -4 10 -1 13 11 8
9 -3 16 -3 16 1 -3 20 2 25 12 12 8 -11 12 -12 16 -2 2 6 11 12 19 12 10 0 12
5 8 13 -5 8 -3 8 9 -2 14 -11 18 -11 23 3 5 13 9 14 20 5 12 -10 13 -9 8 5 -4
9 -3 16 2 15 23 -4 35 2 28 14 -6 9 -5 9 8 -1 12 -10 18 -10 27 2 9 11 9 15
-1 20 -7 3 0 2 16 -1 19 -4 27 -2 22 5 -3 6 -2 13 4 17 5 3 10 1 10 -6 0 -7
14 3 31 22 22 23 30 28 25 14 -6 -19 -5 -19 12 1 10 11 26 20 35 18 14 -2 16
1 7 11 -8 10 -8 15 1 21 8 4 9 3 5 -4 -12 -20 9 -13 24 7 13 19 15 19 27 3 12
-16 12 -15 6 2 -4 14 -3 17 6 12 6 -4 10 -4 9 1 -5 17 44 61 64 58 17 -4 18
-2 6 12 -9 12 -9 15 0 9 6 -4 12 -3 12 3 0 6 7 8 15 5 9 -4 15 0 15 9 0 9 5
19 12 23 6 4 8 3 5 -3 -3 -5 0 -10 8 -10 8 0 12 4 9 8 -3 5 4 17 15 28 11 11
16 23 13 27 -4 4 -1 4 5 0 7 -4 23 0 35 8 12 9 18 16 12 16 -5 0 -15 -5 -22
-12 -8 -8 -12 -8 -12 -1 0 11 29 28 43 24 4 -1 7 7 5 16 -2 10 3 18 10 19 6 1
17 2 22 3 6 0 10 6 10 12 0 5 -6 7 -12 3 -8 -4 -9 -3 -5 2 5 5 16 9 25 9 10 0
16 7 16 17 -1 10 3 15 9 11 6 -4 8 0 4 10 -3 9 -3 16 1 16 21 -3 32 3 32 17 0
8 4 13 9 10 9 -6 26 22 22 38 -1 5 5 6 13 3 11 -4 13 -1 9 10 -5 12 -3 14 8 8
11 -7 11 -5 -1 10 -8 10 -10 16 -3 12 13 -8 37 26 25 37 -3 4 1 4 10 1 9 -4
19 -1 24 6 5 8 3 10 -7 4 -8 -4 2 8 20 28 19 21 31 37 27 37 -5 0 -15 -8 -22
-17 -7 -10 -14 -14 -14 -10 0 4 15 21 32 38 18 16 27 29 20 29 -16 0 0 18 33
39 19 11 18 12 -5 6 -21 -5 -22 -4 -7 5 9 6 15 16 11 21 -3 5 -2 9 3 8 4 -1
15 -1 23 0 12 1 13 3 1 10 -10 7 -8 12 9 24 12 8 16 17 10 19 -6 2 -3 12 10
26 13 14 16 22 8 22 -7 1 -2 7 12 15 14 8 20 14 13 15 -7 0 -10 7 -7 15 4 8
11 12 17 8 6 -4 8 0 4 10 -4 10 -1 17 5 17 6 0 8 3 5 7 -4 3 1 12 11 19 14 11
14 14 2 14 -8 1 -5 5 9 11 18 7 21 12 12 23 -9 11 -9 16 0 22 8 5 9 3 4 -6 -5
-9 -4 -11 4 -6 9 6 9 11 1 21 -8 9 -6 14 6 19 14 5 14 9 3 23 -10 12 -10 14
-1 9 11 -6 17 5 13 27 0 4 3 7 7 7 4 0 9 15 10 32 2 18 8 37 14 43 8 7 9 6 3
-4 -6 -10 -4 -12 4 -6 9 5 10 10 2 18 -8 8 -6 16 7 31 9 11 11 16 5 12 -9 -5
-11 -2 -7 8 3 9 11 16 17 16 8 0 7 4 -1 12 -9 9 -7 14 6 24 15 12 15 15 2 24
-8 5 -10 10 -4 10 7 0 11 16 10 40 0 22 3 40 7 40 5 0 5 5 2 10 -3 6 -1 10 6
10 8 0 8 4 -1 15 -7 8 -9 15 -4 15 5 0 15 12 21 27 10 21 10 28 0 35 -9 6 -9
8 0 8 7 0 13 10 12 23 0 12 0 121 0 242 0 162 -3 221 -12 227 -9 6 -8 8 3 8
10 0 11 3 4 8 -6 4 -10 20 -10 35 1 16 -1 30 -5 33 -4 2 -5 14 -1 26 4 16 2
19 -9 13 -12 -7 -12 -6 -1 7 10 12 9 18 -3 28 -11 9 -12 16 -5 25 8 9 6 17 -4
28 -11 11 -12 17 -3 27 9 10 9 11 -1 5 -10 -5 -13 -1 -12 11 1 11 1 22 0 27
-1 4 -3 10 -4 15 -1 4 -5 13 -10 21 -6 10 -6 12 3 6 9 -5 9 -1 -1 14 -7 12
-17 21 -23 21 -5 0 -3 5 5 10 8 5 10 10 5 10 -6 0 -12 12 -13 26 -1 15 -8 34
-15 42 -8 10 -8 13 0 9 8 -5 8 -1 0 18 -7 14 -16 25 -21 25 -5 0 -3 7 4 15 9
10 9 15 1 15 -6 0 -11 9 -11 21 0 11 -4 18 -9 15 -4 -3 -8 2 -8 12 0 40 -4 53
-13 47 -5 -3 -10 -2 -10 4 0 5 6 12 13 14 7 4 4 8 -10 12 -13 4 -20 12 -16 21
3 8 10 11 17 7 6 -3 7 -2 3 3 -5 5 -14 9 -20 9 -7 0 -11 9 -9 19 3 14 -1 17
-14 12 -16 -6 -16 -5 2 15 10 12 14 20 9 17 -6 -4 -15 5 -22 18 -8 18 -8 22 0
17 7 -4 6 1 -2 10 -7 9 -18 14 -23 11 -6 -4 -5 2 1 14 7 13 7 22 1 24 -5 2
-11 16 -12 31 -1 16 -9 34 -18 40 -13 11 -13 10 -1 -8 15 -20 15 -20 -5 -1
-13 12 -15 20 -7 23 8 3 7 10 -4 23 -9 10 -21 16 -26 13 -6 -3 -7 -1 -3 6 4 6
12 8 19 4 6 -3 0 9 -13 27 -13 18 -19 30 -12 26 11 -7 1 17 -23 54 -5 8 -10
21 -12 29 -1 7 -7 19 -14 25 -9 8 -10 8 -4 -3 6 -10 4 -12 -4 -7 -9 6 -9 11 0
22 11 14 2 19 -24 15 -4 -1 -3 7 2 17 8 15 6 24 -9 40 -21 22 -27 37 -10 27 6
-3 7 1 4 9 -3 9 -12 16 -20 16 -8 0 -14 5 -14 11 0 5 5 7 11 4 6 -4 5 2 -2 13
-7 12 -18 18 -24 14 -5 -3 -4 2 4 11 8 10 11 20 7 24 -3 3 -6 1 -6 -6 0 -9 -4
-8 -15 3 -17 16 -20 30 -6 21 5 -3 13 -1 16 5 4 6 3 10 -2 9 -13 -3 -43 12
-43 23 0 5 4 6 10 3 6 -3 7 1 4 9 -3 9 -14 16 -23 16 -14 0 -14 2 -1 10 12 8
12 10 1 10 -8 0 -11 3 -8 7 4 3 0 17 -8 30 -12 17 -12 23 -3 23 9 0 9 3 -1 9
-8 5 -16 17 -17 27 -1 9 -8 22 -15 28 -9 8 -10 8 -4 -3 6 -10 4 -12 -4 -7 -9
6 -9 11 0 22 10 12 8 16 -9 21 -12 3 -22 10 -22 15 0 5 4 6 10 3 6 -3 7 1 4 9
-3 9 -13 16 -21 16 -13 0 -13 2 -2 17 10 11 10 14 2 9 -8 -4 -13 -1 -13 9 0 9
-4 13 -10 10 -14 -9 -13 8 2 23 9 9 7 12 -10 12 -12 0 -22 5 -22 11 0 5 4 8 9
4 5 -3 13 0 17 6 4 7 3 9 -3 6 -10 -6 -43 33 -43 50 0 4 5 1 10 -7 6 -9 10
-10 10 -3 0 6 -7 19 -16 27 -8 9 -13 20 -10 25 4 5 -7 22 -23 37 -25 23 -28
31 -18 43 9 12 9 13 0 7 -8 -4 -13 -1 -13 9 0 9 -5 13 -11 9 -7 -4 -9 0 -5 14
5 13 1 22 -11 26 -15 6 -15 8 -3 16 10 7 11 10 3 10 -7 0 -13 7 -13 16 0 9 -5
12 -12 8 -10 -6 -10 -4 0 8 7 9 9 18 3 20 -5 1 -11 10 -13 18 -2 8 -6 17 -10
20 -9 7 -13 154 -4 169 4 6 0 11 -10 11 -13 0 -14 3 -5 14 7 9 8 15 2 18 -11
3 -17 290 -7 307 4 5 -2 14 -11 20 -13 7 -14 10 -4 11 11 0 10 5 -4 20 -14 15
-15 20 -4 20 11 0 11 2 -1 10 -12 8 -12 10 -1 10 10 0 11 3 2 14 -8 9 -8 16
-2 20 7 4 7 15 1 31 -5 14 -5 27 0 30 5 3 5 18 1 33 -4 15 -7 36 -7 47 1 11
-2 22 -6 25 -4 3 -8 46 -9 95 -1 50 -5 95 -10 100 -4 6 -10 62 -12 125 -3 63
-9 144 -15 180 -27 180 -29 178 40 40 35 -69 65 -127 68 -130z m-13809 213
c13 -16 12 -17 -3 -4 -17 13 -22 21 -14 21 2 0 10 -8 17 -17z m13918 -1677 c9
-11 9 -16 -1 -22 -7 -4 -10 -4 -6 1 4 4 3 14 -3 22 -6 7 -9 13 -6 13 2 0 10
-6 16 -14z m-11852 -3451 c0 -8 -4 -12 -9 -9 -5 3 -6 10 -3 15 9 13 12 11 12
-6z m12093 5 c0 -5 -5 -10 -11 -10 -5 0 -7 5 -4 10 3 6 8 10 11 10 2 0 4 -4 4
-10z m656 -328 c-18 -16 -18 -16 -6 6 6 13 14 21 18 18 3 -4 -2 -14 -12 -24z
m-13866 -746 c0 -2 -8 -10 -17 -17 -16 -13 -17 -12 -4 4 13 16 21 21 21 13z
m-45 -44 c-3 -3 -11 0 -18 7 -9 10 -8 11 6 5 10 -3 15 -9 12 -12z m-85 -32 c0
-5 -5 -10 -11 -10 -5 0 -7 5 -4 10 3 6 8 10 11 10 2 0 4 -4 4 -10z m11711
-203 c-10 -9 -11 -8 -5 6 3 10 9 15 12 12 3 -3 0 -11 -7 -18z m1353 -243 c3
-8 2 -12 -4 -9 -6 3 -10 10 -10 16 0 14 7 11 14 -7z m-633 -381 c13 -16 12
-17 -3 -4 -17 13 -22 21 -14 21 2 0 10 -8 17 -17z m209 -193 c0 -5 -5 -10 -11
-10 -5 0 -7 5 -4 10 3 6 8 10 11 10 2 0 4 -4 4 -10z m-11140 -44 c0 -2 -8 -10
-17 -17 -16 -13 -17 -12 -4 4 13 16 21 21 21 13z m13100 -26 c0 -5 -5 -10 -11
-10 -5 0 -7 5 -4 10 3 6 8 10 11 10 2 0 4 -4 4 -10z m1480 -170 c0 -16 -5 -32
-11 -36 -8 -4 -7 -9 2 -15 10 -6 11 -9 2 -9 -8 0 -13 -13 -13 -29 0 -17 -6
-31 -16 -35 -8 -3 -13 -10 -9 -15 3 -6 -3 -14 -12 -20 -13 -8 -14 -10 -4 -11
11 0 9 -4 -5 -15 -14 -11 -16 -15 -4 -15 12 -1 12 -3 -2 -14 -10 -7 -15 -16
-11 -19 3 -4 0 -7 -8 -7 -11 0 -11 -2 1 -10 11 -7 11 -10 2 -10 -7 0 -10 -4
-7 -10 3 -5 2 -10 -3 -10 -6 0 -13 -7 -16 -16 -4 -10 -2 -13 7 -8 9 5 9 4 0
-7 -7 -7 -13 -21 -13 -31 0 -10 -4 -18 -10 -18 -5 0 -10 -5 -10 -11 0 -5 4 -8
10 -4 5 3 3 -7 -5 -22 -8 -15 -15 -33 -15 -40 0 -6 -5 -15 -12 -19 -7 -5 -8
-3 -3 7 8 12 6 12 -8 0 -18 -14 -23 -26 -8 -16 5 3 12 1 16 -5 3 -5 3 -10 -2
-10 -13 0 -32 -50 -26 -67 4 -11 2 -14 -5 -9 -7 4 -13 2 -13 -3 -1 -6 -3 -15
-4 -21 -1 -5 -3 -15 -4 -21 0 -5 -7 -7 -13 -3 -8 5 -7 0 2 -11 8 -10 10 -16 5
-13 -6 4 -15 -5 -22 -18 -6 -14 -7 -21 -1 -18 6 4 5 -3 -1 -15 -7 -11 -14 -21
-17 -21 -3 0 -2 5 1 10 3 6 1 10 -4 10 -15 0 -14 -13 1 -28 10 -10 8 -14 -11
-19 -17 -4 -19 -8 -9 -14 10 -7 11 -9 0 -9 -8 0 -10 -5 -6 -12 5 -8 2 -9 -12
-4 -10 4 -15 4 -12 0 4 -4 3 -16 -3 -28 -10 -20 -10 -20 5 -2 9 11 16 15 16 8
0 -7 -9 -17 -20 -24 -11 -7 -20 -16 -20 -21 0 -4 5 -5 12 -1 7 4 8 3 4 -4 -4
-7 -15 -12 -24 -12 -13 0 -14 -2 -3 -9 11 -7 9 -13 -8 -30 -12 -12 -19 -26
-16 -30 2 -5 -3 -12 -12 -15 -15 -6 -15 -8 -3 -16 12 -8 9 -10 -10 -11 -14 0
-20 -3 -13 -5 7 -3 9 -12 6 -20 -3 -7 -10 -11 -16 -7 -6 4 -8 0 -4 -10 3 -9
-1 -24 -11 -33 -9 -9 -17 -24 -19 -33 -1 -8 -9 -21 -17 -27 -9 -6 -13 -14 -9
-17 3 -4 -1 -7 -10 -7 -9 0 -17 -5 -17 -11 0 -5 4 -7 10 -4 6 3 7 -1 4 -10 -5
-13 -9 -13 -22 -3 -12 10 -14 10 -8 1 6 -12 -4 -17 -25 -15 -4 1 -5 -9 -3 -21
2 -12 1 -16 -2 -8 -4 9 -9 10 -13 2 -5 -7 -45 -11 -112 -10 -131 0 -158 2
-153 11 2 4 -9 6 -25 6 -33 -1 -61 17 -61 38 0 8 -6 11 -16 7 -14 -5 -15 -3
-6 14 6 11 8 24 4 29 -4 5 2 2 12 -6 13 -10 17 -10 12 -2 -4 7 -2 12 6 12 9 0
9 3 -2 10 -12 8 -10 10 10 10 20 0 22 2 10 11 -12 9 -11 10 8 6 12 -3 20 -2
18 1 -2 4 2 12 9 19 11 10 15 10 18 0 5 -11 11 18 8 36 -1 5 3 6 9 2 6 -3 7
-11 4 -17 -4 -7 -2 -8 4 -4 7 4 12 17 12 29 0 18 2 19 10 7 8 -13 10 -12 10 3
0 9 5 17 11 17 5 0 7 6 3 13 -5 7 0 6 11 -3 17 -14 18 -14 7 6 -9 16 -8 21 3
21 8 0 11 -5 8 -10 -4 -6 -1 -7 6 -3 7 5 10 14 7 21 -3 9 2 12 15 10 16 -3 18
-1 10 9 -8 10 -7 17 4 26 8 7 15 9 15 4 0 -4 6 1 14 11 8 11 12 24 8 30 -3 5
1 4 10 -3 13 -10 18 -9 29 5 13 17 13 17 -6 3 -18 -14 -19 -13 -8 1 7 9 10 18
7 22 -3 3 3 3 15 0 13 -3 21 -1 21 6 0 7 -5 9 -12 5 -7 -4 -8 -3 -4 4 4 6 14
8 23 5 11 -4 14 -3 9 5 -4 7 -1 12 8 12 8 0 20 9 26 20 6 11 8 20 5 20 -4 0
-3 5 0 10 5 8 12 7 23 -2 13 -11 14 -11 4 8 -9 16 -8 21 3 21 8 0 11 -5 8 -10
-4 -6 -1 -7 6 -2 7 4 10 16 8 27 -5 16 -3 17 11 6 12 -10 14 -10 8 0 -4 6 -3
12 3 12 5 0 8 9 6 20 -2 11 1 23 7 26 7 5 8 2 3 -6 -5 -8 -3 -11 6 -8 8 3 13
12 11 21 -1 8 3 19 9 23 7 4 9 3 5 -4 -3 -6 -1 -14 5 -18 7 -4 10 -3 7 2 -9
15 11 56 23 48 8 -4 8 0 0 15 -7 12 -8 21 -4 20 4 -1 19 2 31 6 18 6 20 10 10
16 -9 6 -7 9 9 9 14 0 24 9 32 30 5 17 13 30 16 30 3 0 3 -5 -1 -12 -4 -7 -3
-8 5 -4 6 4 9 12 6 17 -9 13 7 36 45 64 19 14 29 25 24 25 -6 0 -15 -5 -22
-12 -7 -7 -12 -9 -12 -5 0 3 11 17 24 30 14 14 22 28 18 33 -4 4 1 4 10 1 13
-4 16 -1 13 14 -2 11 0 17 6 14 5 -4 9 1 9 10 0 9 5 13 10 10 6 -3 10 1 10 9
0 9 6 16 13 17 9 0 9 2 -1 6 -10 4 -8 9 7 20 23 15 29 38 9 28 -7 -4 -3 2 8
12 14 12 24 36 27 64 3 24 6 45 6 47 1 2 5 1 10 -2 5 -3 12 1 15 10 4 10 2 13
-7 9 -6 -4 -5 -1 4 7 8 7 18 21 22 31 10 26 27 11 27 -23z m-13008 -132 c-7
-7 -12 -8 -12 -2 0 14 12 26 19 19 2 -3 -1 -11 -7 -17z m13918 -297 c0 -6 -4
-12 -8 -15 -5 -3 -9 1 -9 9 0 8 4 15 9 15 4 0 8 -4 8 -9z m-16156 -96 c-9 -14
-18 -25 -21 -25 -5 0 5 18 20 38 17 22 18 13 1 -13z m15296 -1108 c0 -2 -10
-12 -22 -23 l-23 -19 19 23 c18 21 26 27 26 19z m-15430 -1237 c6 -11 8 -20 6
-20 -3 0 -10 9 -16 20 -6 11 -8 20 -6 20 3 0 10 -9 16 -20z m180 -165 c11 -13
10 -14 -4 -9 -9 3 -16 10 -16 15 0 13 6 11 20 -6z m380 -171 c0 -8 -19 -13
-24 -6 -3 5 1 9 9 9 8 0 15 -2 15 -3z m36 -30 c1 -9 0 -13 -4 -10 -3 4 -7 14
-8 22 -1 9 0 13 4 10 3 -4 7 -14 8 -22z"/>
<path d="M19050 13221 c0 -5 7 -12 16 -15 14 -5 15 -4 4 9 -14 17 -20 19 -20
6z"/>
<path d="M19060 13160 c-9 -6 -10 -10 -3 -10 6 0 15 5 18 10 8 12 4 12 -15 0z"/>
<path d="M19060 9000 c-9 -6 -10 -10 -3 -10 6 0 15 5 18 10 8 12 4 12 -15 0z"/>
<path d="M19053 8950 c1 -20 12 -26 20 -12 3 4 -1 13 -8 19 -11 10 -13 9 -12
-7z"/>
<path d="M15416 6912 c-3 -5 1 -9 9 -9 8 0 12 4 9 9 -3 4 -7 8 -9 8 -2 0 -6
-4 -9 -8z"/>
<path d="M16465 6629 c-4 -6 -5 -12 -2 -15 2 -3 7 2 10 11 7 17 1 20 -8 4z"/>
<path d="M14755 6540 c-3 -5 -1 -10 4 -10 6 0 11 5 11 10 0 6 -2 10 -4 10 -3
0 -8 -4 -11 -10z"/>
<path d="M16325 6510 c-3 -6 1 -7 9 -4 18 7 21 14 7 14 -6 0 -13 -4 -16 -10z"/>
<path d="M15500 6120 c-6 -11 -8 -20 -6 -20 3 0 10 9 16 20 6 11 8 20 6 20 -3
0 -10 -9 -16 -20z"/>
<path d="M14610 5481 c0 -6 4 -13 10 -16 6 -3 7 1 4 9 -7 18 -14 21 -14 7z"/>
<path d="M15090 5042 c6 -13 14 -21 18 -18 3 4 -2 14 -12 24 -18 16 -18 16 -6
-6z"/>
<path d="M17796 3952 c-3 -5 1 -9 9 -9 8 0 12 4 9 9 -3 4 -7 8 -9 8 -2 0 -6
-4 -9 -8z"/>
<path d="M13780 21321 c0 -13 39 -35 48 -27 3 3 0 6 -6 6 -6 0 -18 7 -26 16
-9 8 -16 11 -16 5z"/>
<path d="M13827 21269 c7 -7 15 -10 18 -7 3 3 -2 9 -12 12 -14 6 -15 5 -6 -5z"/>
<path d="M14087 21019 c7 -7 15 -10 18 -7 3 3 -2 9 -12 12 -14 6 -15 5 -6 -5z"/>
<path d="M14736 19867 c3 -10 9 -15 12 -12 3 3 0 11 -7 18 -10 9 -11 8 -5 -6z"/>
<path d="M17056 17845 c9 -14 20 -25 25 -25 5 0 -1 11 -13 25 -12 14 -23 25
-25 25 -2 0 4 -11 13 -25z"/>
<path d="M17785 16961 c-6 -11 13 -26 22 -17 4 3 1 6 -6 6 -7 0 -9 5 -6 10 3
6 4 10 1 10 -3 0 -7 -4 -11 -9z"/>
<path d="M3122 16004 c-7 -8 -8 -14 -3 -14 10 0 25 19 20 25 -2 1 -10 -3 -17
-11z"/>
<path d="M2359 15033 c-13 -16 -12 -17 4 -4 16 13 21 21 13 21 -2 0 -10 -8
-17 -17z"/>
<path d="M1971 14273 c7 -12 15 -20 18 -17 3 2 -3 12 -13 22 -17 16 -18 16 -5
-5z"/>
<path d="M1955 14169 c-4 -6 -5 -12 -2 -15 2 -3 7 2 10 11 7 17 1 20 -8 4z"/>
<path d="M1990 8736 c0 -2 7 -7 16 -10 8 -3 12 -2 9 4 -6 10 -25 14 -25 6z"/>
<path d="M2025 8698 c11 -6 23 -16 27 -22 5 -8 8 -7 8 1 0 7 -9 17 -19 23 -27
14 -41 12 -16 -2z"/>
<path d="M3186 7577 c3 -10 9 -15 12 -12 3 3 0 11 -7 18 -10 9 -11 8 -5 -6z"/>
<path d="M2766 6351 c-4 -6 -4 -11 1 -11 4 0 1 -5 -7 -10 -13 -9 -13 -11 0
-20 12 -8 11 -10 -5 -8 -11 2 -21 -1 -22 -5 -1 -4 -12 -17 -25 -27 -13 -11
-19 -19 -14 -20 5 0 2 -8 -5 -17 -13 -16 -12 -17 3 -5 10 8 16 19 15 25 -1 7
5 12 15 12 18 0 61 35 53 43 -3 3 0 11 7 19 8 10 8 17 1 24 -8 8 -13 7 -17 0z
m-21 -60 c3 -5 2 -12 -3 -15 -5 -3 -9 1 -9 9 0 17 3 19 12 6z"/>
<path d="M2340 6045 c15 -18 7 -19 -23 -4 -20 9 -21 9 -4 -4 10 -9 14 -18 9
-21 -5 -3 -15 1 -22 9 -13 16 -30 11 -30 -8 0 -8 3 -8 9 2 5 7 11 9 14 4 10
-16 -10 -38 -25 -27 -15 12 -28 12 -45 1 -19 -12 -16 -25 10 -33 38 -13 58
-12 47 1 -11 13 -7 14 68 18 26 2 33 18 22 47 -1 3 -2 9 -1 13 1 5 -3 6 -9 2
-5 -3 -10 -1 -10 4 0 6 -5 11 -11 11 -8 0 -8 -5 1 -15z m19 -36 c-7 -4 -17 -5
-21 -3 -4 3 -8 1 -8 -4 0 -5 -9 -12 -19 -15 -14 -3 -18 -1 -14 9 3 8 9 12 13
9 5 -3 11 -1 15 5 4 6 11 8 16 5 5 -4 9 -1 9 5 0 6 5 8 11 4 8 -4 7 -9 -2 -15z
m-96 -22 c-2 -4 -3 -13 -3 -19 0 -9 -4 -8 -10 2 -5 8 -10 11 -10 7 0 -5 -5 -5
-10 -2 -6 4 -8 10 -5 15 6 9 41 6 38 -3z"/>
<path d="M2150 6029 c0 -5 5 -7 10 -4 6 3 10 8 10 11 0 2 -4 4 -10 4 -5 0 -10
-5 -10 -11z"/>
<path d="M2208 6033 c6 -2 9 -10 6 -15 -4 -7 -2 -8 5 -4 13 9 5 26 -12 25 -9
0 -8 -2 1 -6z"/>
<path d="M2188 5997 c-3 -19 -2 -25 4 -19 6 6 8 18 6 28 -3 14 -5 12 -10 -9z"/>
<path d="M20095 6000 c-3 -6 1 -7 9 -4 18 7 21 14 7 14 -6 0 -13 -4 -16 -10z"/>
<path d="M20115 5950 c-3 -5 -1 -10 4 -10 6 0 11 5 11 10 0 6 -2 10 -4 10 -3
0 -8 -4 -11 -10z"/>
<path d="M5700 5851 c0 -6 4 -13 10 -16 6 -3 7 1 4 9 -7 18 -14 21 -14 7z"/>
<path d="M5870 5639 c0 -5 5 -7 10 -4 6 3 10 8 10 11 0 2 -4 4 -10 4 -5 0 -10
-5 -10 -11z"/>
<path d="M5953 5525 c0 -8 4 -12 9 -9 5 3 6 10 3 15 -9 13 -12 11 -12 -6z"/>
<path d="M5175 5000 c3 -5 8 -10 11 -10 2 0 4 5 4 10 0 6 -5 10 -11 10 -5 0
-7 -4 -4 -10z"/>
<path d="M6010 4949 c0 -5 5 -7 10 -4 6 3 10 8 10 11 0 2 -4 4 -10 4 -5 0 -10
-5 -10 -11z"/>
<path d="M4116 4192 c-3 -5 1 -9 9 -9 8 0 12 4 9 9 -3 4 -7 8 -9 8 -2 0 -6 -4
-9 -8z"/>
<path d="M4633 3984 c0 -17 2 -22 7 -13 5 6 6 18 3 26 -8 19 -10 16 -10 -13z"/>
<path d="M19349 3775 c-1 -3 -3 -9 -4 -15 -1 -5 -3 -17 -4 -26 0 -8 -5 -12
-11 -9 -5 3 -10 4 -10 1 0 -3 8 -10 18 -15 15 -8 17 -4 17 30 1 34 -2 50 -6
34z"/>
<path d="M19314 3690 c0 -13 4 -16 10 -10 7 7 7 13 0 20 -6 6 -10 3 -10 -10z"/>
<path d="M3430 2959 c0 -5 5 -7 10 -4 6 3 10 8 10 11 0 2 -4 4 -10 4 -5 0 -10
-5 -10 -11z"/>
<path d="M18270 2939 c0 -5 5 -7 10 -4 6 3 10 8 10 11 0 2 -4 4 -10 4 -5 0
-10 -5 -10 -11z"/>
<path d="M18096 2607 c3 -10 9 -15 12 -12 3 3 0 11 -7 18 -10 9 -11 8 -5 -6z"/>
<path d="M18136 2558 c3 -5 10 -6 15 -3 13 9 11 12 -6 12 -8 0 -12 -4 -9 -9z"/>
<path d="M4390 2358 c0 -4 4 -8 9 -8 6 0 12 4 15 8 3 5 -1 9 -9 9 -8 0 -15 -4
-15 -9z"/>
<path d="M18371 2354 c0 -11 3 -14 6 -6 3 7 2 16 -1 19 -3 4 -6 -2 -5 -13z"/>
<path d="M4355 2320 c-3 -5 -2 -10 4 -10 5 0 13 5 16 10 3 6 2 10 -4 10 -5 0
-13 -4 -16 -10z"/>
<path d="M3903 2305 c0 -8 4 -15 8 -15 5 0 5 -8 2 -17 -6 -15 -5 -16 8 -3 14
12 14 16 0 32 -19 22 -18 22 -18 3z"/>
<path d="M4679 1928 c0 -2 -2 -11 -4 -21 -3 -15 -1 -16 11 -6 7 6 11 15 8 20
-5 9 -13 12 -15 7z"/>
<path d="M3875 1560 c3 -5 8 -10 11 -10 2 0 4 5 4 10 0 6 -5 10 -11 10 -5 0
-7 -4 -4 -10z"/>
</g>
</svg>
